<?xml version="1.0" encoding="UTF-8"?>
<!DOCTYPE svg PUBLIC "-//W3C//DTD SVG 1.1//EN" "http://www.w3.org/Graphics/SVG/1.1/DTD/svg11.dtd">
<svg xmlns="http://www.w3.org/2000/svg" version="1.1" width="520px" height="480px" style="shape-rendering:geometricPrecision; text-rendering:geometricPrecision; image-rendering:optimizeQuality; fill-rule:evenodd; clip-rule:evenodd" xmlns:xlink="http://www.w3.org/1999/xlink">
<g><path style="opacity:0.685" fill="#252525" d="M 386.5,63.5 C 386.5,64.1667 386.5,64.8333 386.5,65.5C 386.178,66.8582 386.178,68.5248 386.5,70.5C 383.853,67.2363 381.186,63.903 378.5,60.5C 370.132,54.4391 363.632,46.7724 359,37.5C 357.565,32.1429 355.732,26.9763 353.5,22C 354.172,19.6101 355.505,19.1101 357.5,20.5C 362.846,26.3454 368.346,32.0121 374,37.5C 380.053,45.2725 384.22,53.9392 386.5,63.5 Z M 378.5,52.5 C 374.501,51.0724 371.001,48.7391 368,45.5C 356.924,26.6377 358.258,25.3044 372,41.5C 374.694,44.8924 376.86,48.5591 378.5,52.5 Z"/></g>
<g><path style="opacity:0.767" fill="#1c1c1c" d="M 405.5,152.5 C 404.542,152.953 403.708,153.619 403,154.5C 402.536,153.906 402.369,153.239 402.5,152.5C 403.88,147.081 403.713,141.747 402,136.5C 397.867,134.19 394.034,131.524 390.5,128.5C 383.807,129.606 382.807,132.606 387.5,137.5C 386.711,137.783 386.044,138.283 385.5,139C 387.107,140.049 387.773,141.549 387.5,143.5C 383.936,138.012 379.269,137.012 373.5,140.5C 357.973,139.205 352.64,146.038 357.5,161C 359.413,162.413 360.746,164.246 361.5,166.5C 360.007,165.555 358.507,164.555 357,163.5C 355.278,163.611 355.112,164.111 356.5,165C 355.244,165.417 354.577,166.25 354.5,167.5C 354.167,167.5 353.833,167.5 353.5,167.5C 351.34,165.168 349.34,162.668 347.5,160C 348.873,158.521 350.373,158.688 352,160.5C 351.391,154.486 351.391,148.486 352,142.5C 349.868,143.928 347.701,145.261 345.5,146.5C 344.929,144.64 344.929,142.973 345.5,141.5C 347.853,140.66 349.853,139.326 351.5,137.5C 352.833,137.5 354.167,137.5 355.5,137.5C 356.167,137.833 356.833,138.167 357.5,138.5C 357.833,139.833 358.167,139.833 358.5,138.5C 357.4,137.395 356.733,136.062 356.5,134.5C 356.167,133.167 355.833,133.167 355.5,134.5C 355.167,134.5 354.833,134.5 354.5,134.5C 353.5,133.833 352.5,133.167 351.5,132.5C 352.8,131.399 353.3,130.066 353,128.5C 350.735,126.278 348.568,123.945 346.5,121.5C 343.724,121.054 341.224,120.054 339,118.5C 336.715,114.813 335.548,110.813 335.5,106.5C 339.217,107.689 342.884,109.189 346.5,111C 347.971,113.243 348.971,115.743 349.5,118.5C 352.521,121.686 355.354,125.02 358,128.5C 361.269,126.579 362.103,123.912 360.5,120.5C 354.297,117.408 351.797,112.408 353,105.5C 353.388,104.572 354.055,103.905 355,103.5C 363.349,106.555 366.682,112.555 365,121.5C 366.391,123.715 368.057,123.715 370,121.5C 370.333,118.833 370.667,116.167 371,113.5C 371.414,113.043 371.914,112.709 372.5,112.5C 376.549,113.713 379.549,116.213 381.5,120C 383.529,120.681 385.529,121.014 387.5,121C 379.049,109.938 370.716,98.7709 362.5,87.5C 362.833,86.5 363.5,85.8333 364.5,85.5C 379.55,94.3828 391.383,106.383 400,121.5C 400.877,114.751 400.544,108.084 399,101.5C 397.692,99.3586 396.192,97.3586 394.5,95.5C 387.197,89.6997 380.03,83.6997 373,77.5C 371.277,75.2833 369.777,72.95 368.5,70.5C 368.351,69.448 368.517,68.448 369,67.5C 370.011,68.3366 371.178,68.67 372.5,68.5C 374.372,73.0432 377.372,76.7099 381.5,79.5C 382.959,79.4326 384.292,79.7659 385.5,80.5C 386.167,80.5 386.5,80.1667 386.5,79.5C 385.34,77.7973 386.007,77.1307 388.5,77.5C 389.644,76.1507 389.644,75.8174 388.5,76.5C 387.5,76.5 386.5,76.5 385.5,76.5C 385.5,75.5 385.5,74.5 385.5,73.5C 386.363,74.463 387.03,74.463 387.5,73.5C 386.873,72.5832 386.539,71.5832 386.5,70.5C 386.178,68.5248 386.178,66.8582 386.5,65.5C 386.833,65.5 387.167,65.5 387.5,65.5C 388.167,65.5 388.5,65.1667 388.5,64.5C 388.784,62.5853 388.451,60.9187 387.5,59.5C 387.196,58.8501 386.863,58.1835 386.5,57.5C 387.743,51.1923 389.41,45.0256 391.5,39C 391.167,38.6667 390.833,38.3333 390.5,38C 391.653,36.117 393.319,35.2837 395.5,35.5C 395.386,38.85 395.053,42.1833 394.5,45.5C 395.846,58.5163 397.346,71.5163 399,84.5C 400.909,88.3153 402.242,92.3153 403,96.5C 405.173,83.6426 409.506,71.6426 416,60.5C 417.444,58.8446 419.278,58.178 421.5,58.5C 418.056,72.3374 413.889,86.004 409,99.5C 406.397,109.959 404.23,120.459 402.5,131C 404.057,133.296 405.724,135.462 407.5,137.5C 414.736,129.132 422.903,121.798 432,115.5C 432.87,116.108 433.37,116.941 433.5,118C 429.061,123.491 425.061,129.325 421.5,135.5C 416.045,141.189 410.712,146.856 405.5,152.5 Z M 372.5,68.5 C 376.912,71.0717 380.912,74.2384 384.5,78C 383.263,78.2321 382.263,78.7321 381.5,79.5C 377.372,76.7099 374.372,73.0432 372.5,68.5 Z M 379.5,102.5 C 380.5,102.833 381.167,103.5 381.5,104.5C 380.167,104.5 379.5,103.833 379.5,102.5 Z M 381.5,104.5 C 383.963,106.461 386.297,108.628 388.5,111C 384.514,110.855 382.181,108.688 381.5,104.5 Z M 362.5,130.5 C 362.013,131.473 361.513,132.473 361,133.5C 360.275,131.843 360.775,130.843 362.5,130.5 Z M 374.5,129.5 C 373.167,129.5 372.5,130.167 372.5,131.5C 372.167,131.5 371.833,131.5 371.5,131.5C 371.426,129.589 370.426,128.422 368.5,128C 369.669,126.164 371.336,124.998 373.5,124.5C 377.198,125.146 380.865,125.479 384.5,125.5C 382.967,127.638 381.134,128.305 379,127.5C 377.67,128.582 376.17,129.249 374.5,129.5 Z"/></g>
<g><path style="opacity:0.08" fill="#a8a8a8" d="M 391.5,50.5 C 392.803,53.3553 392.803,56.3553 391.5,59.5C 390.932,56.5884 390.932,53.5884 391.5,50.5 Z"/></g>
<g><path style="opacity:0.213" fill="#9f9f9f" d="M 387.5,59.5 C 388.451,60.9187 388.784,62.5853 388.5,64.5C 387.833,64.5 387.5,64.8333 387.5,65.5C 387.167,65.5 386.833,65.5 386.5,65.5C 386.5,64.8333 386.5,64.1667 386.5,63.5C 387.434,62.4324 387.768,61.099 387.5,59.5 Z"/></g>
<g><path style="opacity:0.664" fill="#2a2a2a" d="M 385.5,73.5 C 385.5,74.5 385.5,75.5 385.5,76.5C 386.5,76.5 387.5,76.5 388.5,76.5C 388.5,76.8333 388.5,77.1667 388.5,77.5C 386.007,77.1307 385.34,77.7973 386.5,79.5C 385.833,79.5 385.5,79.8333 385.5,80.5C 384.292,79.7659 382.959,79.4326 381.5,79.5C 382.263,78.7321 383.263,78.2321 384.5,78C 380.912,74.2384 376.912,71.0717 372.5,68.5C 371.178,68.67 370.011,68.3366 369,67.5C 368.517,68.448 368.351,69.448 368.5,70.5C 366.959,68.6121 365.293,66.7787 363.5,65C 363.613,63.7202 364.28,62.8869 365.5,62.5C 373.689,63.5906 380.356,67.2573 385.5,73.5 Z"/></g>
<g><path style="opacity:0.808" fill="#1d1d1d" d="M 426.5,214.5 C 426.81,209.548 425.81,209.214 423.5,213.5C 424.836,208.031 428.17,204.198 433.5,202C 463.52,174.738 477.186,140.572 474.5,99.5C 475.814,94.6523 475.814,89.6523 474.5,84.5C 473.702,84.9569 473.369,85.6236 473.5,86.5C 471.302,92.5856 468.802,98.5856 466,104.5C 457.667,116.167 449.333,127.833 441,139.5C 428.535,160.703 420.035,183.369 415.5,207.5C 414.686,209.631 414.186,211.964 414,214.5C 413.768,213.263 413.268,212.263 412.5,211.5C 412.666,207.486 412.499,203.486 412,199.5C 406.124,206.37 400.291,213.203 394.5,220C 394.667,220.5 394.833,221 395,221.5C 398.712,218.761 402.879,217.094 407.5,216.5C 408.289,216.783 408.956,217.283 409.5,218C 408.142,218.934 406.808,219.768 405.5,220.5C 398.584,223.234 392.584,227.4 387.5,233C 387.006,234.462 386.673,235.962 386.5,237.5C 387.589,244.334 389.256,251.001 391.5,257.5C 391.573,259.027 390.906,260.027 389.5,260.5C 387.033,254.647 384.866,248.647 383,242.5C 380.784,238.973 377.617,236.806 373.5,236C 367.786,235.368 362.119,235.701 356.5,237C 348.811,240.541 341.811,245.041 335.5,250.5C 334.094,250.027 333.427,249.027 333.5,247.5C 335.146,245.854 336.812,244.188 338.5,242.5C 336.962,240.757 335.962,238.757 335.5,236.5C 335.973,235.094 336.973,234.427 338.5,234.5C 339.751,236.382 340.918,238.382 342,240.5C 350.518,234.663 360.018,231.83 370.5,232C 369.429,231.148 368.429,230.315 367.5,229.5C 367.369,228.761 367.536,228.094 368,227.5C 369.439,229.014 370.939,229.347 372.5,228.5C 372.043,227.702 371.376,227.369 370.5,227.5C 370.5,226.833 370.167,226.5 369.5,226.5C 369.5,225.833 369.167,225.5 368.5,225.5C 364.357,221.267 360.023,217.267 355.5,213.5C 355.196,212.85 354.863,212.183 354.5,211.5C 355.2,211.213 355.867,210.88 356.5,210.5C 357.239,210.631 357.906,210.464 358.5,210C 351.352,202.77 344.352,195.603 337.5,188.5C 338.514,187.326 339.847,186.66 341.5,186.5C 346.167,190.833 350.833,195.167 355.5,199.5C 355.5,200.167 355.833,200.5 356.5,200.5C 356.833,201.833 357.167,201.833 357.5,200.5C 357.068,199.29 356.401,198.29 355.5,197.5C 352.436,194.038 350.436,190.038 349.5,185.5C 352.157,185.162 354.49,185.829 356.5,187.5C 361.167,192.833 366.167,197.833 371.5,202.5C 373.277,201.099 374.944,199.599 376.5,198C 372.217,195.385 368.217,192.385 364.5,189C 359.684,183.017 354.351,177.517 348.5,172.5C 347.548,170.955 347.215,169.288 347.5,167.5C 343.293,165.797 339.793,163.13 337,159.5C 336.223,156.571 336.39,153.737 337.5,151C 334.919,148.35 332.252,145.684 329.5,143C 332.489,139.08 336.322,137.58 341,138.5C 345.519,136.606 345.353,134.772 340.5,133C 334.628,133.975 330.628,131.808 328.5,126.5C 328.818,125.353 329.484,124.519 330.5,124C 332.833,123.333 335.167,123.333 337.5,124C 340.982,127.812 344.815,131.312 349,134.5C 349.417,133.244 350.25,132.577 351.5,132.5C 352.5,133.167 353.5,133.833 354.5,134.5C 353.694,135.728 352.694,136.728 351.5,137.5C 348.392,137.375 346.392,138.708 345.5,141.5C 344.929,142.973 344.929,144.64 345.5,146.5C 344.618,148.384 343.118,149.717 341,150.5C 340.333,152.833 340.333,155.167 341,157.5C 344.434,161.77 348.601,165.103 353.5,167.5C 354.849,168.644 355.183,168.644 354.5,167.5C 354.577,166.25 355.244,165.417 356.5,165C 355.112,164.111 355.278,163.611 357,163.5C 358.507,164.555 360.007,165.555 361.5,166.5C 362.526,167.853 363.859,168.853 365.5,169.5C 365.5,168.833 365.5,168.167 365.5,167.5C 365.263,166.209 365.596,165.209 366.5,164.5C 368.322,167.472 370.156,170.472 372,173.5C 370.947,167.181 368.781,161.181 365.5,155.5C 366,155.167 366.5,154.833 367,154.5C 371.017,159.872 374.517,165.538 377.5,171.5C 377.833,171.167 378.167,170.833 378.5,170.5C 375.909,166.805 375.242,162.805 376.5,158.5C 378.482,162.102 380.315,165.769 382,169.5C 382.671,165.364 382.171,161.364 380.5,157.5C 381.689,156.571 383.022,156.238 384.5,156.5C 384.846,161.273 385.679,165.94 387,170.5C 387.667,169.833 388.333,169.167 389,168.5C 390.033,160.004 389.533,151.67 387.5,143.5C 387.773,141.549 387.107,140.049 385.5,139C 386.044,138.283 386.711,137.783 387.5,137.5C 388.794,138.29 389.961,139.29 391,140.5C 391.547,143.702 392.547,146.702 394,149.5C 394.499,154.155 394.666,158.821 394.5,163.5C 396.061,160.703 397.394,157.703 398.5,154.5C 399.425,153.359 400.259,153.359 401,154.5C 401.278,153.584 401.778,152.918 402.5,152.5C 402.369,153.239 402.536,153.906 403,154.5C 403.708,153.619 404.542,152.953 405.5,152.5C 404.044,158.025 401.71,163.191 398.5,168C 398.833,168.167 399.167,168.333 399.5,168.5C 405.214,163.451 411.214,158.785 417.5,154.5C 420.148,152.342 423.148,151.008 426.5,150.5C 426.5,151.833 426.5,153.167 426.5,154.5C 431.629,146.263 436.795,137.93 442,129.5C 456.809,113.179 467.642,94.5126 474.5,73.5C 475.651,72.269 476.817,72.269 478,73.5C 478.167,78.6667 478.333,83.8333 478.5,89C 477.695,106.522 476.528,124.022 475,141.5C 470.858,160.118 462.691,176.785 450.5,191.5C 442.42,199.251 434.42,206.917 426.5,214.5 Z M 354.5,134.5 C 354.833,134.5 355.167,134.5 355.5,134.5C 355.5,135.5 355.5,136.5 355.5,137.5C 354.167,137.5 352.833,137.5 351.5,137.5C 352.694,136.728 353.694,135.728 354.5,134.5 Z M 362.5,130.5 C 360.775,130.843 360.275,131.843 361,133.5C 361.513,132.473 362.013,131.473 362.5,130.5 Z M 402.5,152.5 C 401.778,152.918 401.278,153.584 401,154.5C 400.259,153.359 399.425,153.359 398.5,154.5C 397.394,157.703 396.061,160.703 394.5,163.5C 394.666,158.821 394.499,154.155 394,149.5C 392.547,146.702 391.547,143.702 391,140.5C 389.961,139.29 388.794,138.29 387.5,137.5C 382.807,132.606 383.807,129.606 390.5,128.5C 394.034,131.524 397.867,134.19 402,136.5C 403.713,141.747 403.88,147.081 402.5,152.5 Z M 374.5,129.5 C 373.167,129.5 372.5,130.167 372.5,131.5C 372.167,131.5 371.833,131.5 371.5,131.5C 371.426,129.589 370.426,128.422 368.5,128C 369.669,126.164 371.336,124.998 373.5,124.5C 377.198,125.146 380.865,125.479 384.5,125.5C 382.967,127.638 381.134,128.305 379,127.5C 377.67,128.582 376.17,129.249 374.5,129.5 Z M 473.5,86.5 C 474.485,90.6344 474.818,94.9677 474.5,99.5C 477.186,140.572 463.52,174.738 433.5,202C 428.17,204.198 424.836,208.031 423.5,213.5C 422.176,214.85 421.176,214.683 420.5,213C 422.291,206.247 424.791,199.747 428,193.5C 435.333,183.5 442.667,173.5 450,163.5C 456.738,152.799 462.238,141.466 466.5,129.5C 465.349,128.269 464.183,128.269 463,129.5C 457.469,139.78 452.136,150.113 447,160.5C 440.577,169.678 433.911,178.678 427,187.5C 425,191.5 423,195.5 421,199.5C 419.656,204.541 418.156,209.541 416.5,214.5C 415.526,212.257 415.192,209.924 415.5,207.5C 420.035,183.369 428.535,160.703 441,139.5C 449.333,127.833 457.667,116.167 466,104.5C 468.802,98.5856 471.302,92.5856 473.5,86.5 Z M 351.5,137.5 C 349.853,139.326 347.853,140.66 345.5,141.5C 346.392,138.708 348.392,137.375 351.5,137.5 Z M 387.5,143.5 C 389.533,151.67 390.033,160.004 389,168.5C 388.333,169.167 387.667,169.833 387,170.5C 385.679,165.94 384.846,161.273 384.5,156.5C 383.022,156.238 381.689,156.571 380.5,157.5C 382.171,161.364 382.671,165.364 382,169.5C 380.315,165.769 378.482,162.102 376.5,158.5C 375.242,162.805 375.909,166.805 378.5,170.5C 378.167,170.833 377.833,171.167 377.5,171.5C 374.517,165.538 371.017,159.872 367,154.5C 366.5,154.833 366,155.167 365.5,155.5C 368.781,161.181 370.947,167.181 372,173.5C 370.156,170.472 368.322,167.472 366.5,164.5C 365.528,163.249 364.861,163.582 364.5,165.5C 364.543,166.416 364.876,167.083 365.5,167.5C 365.5,168.167 365.5,168.833 365.5,169.5C 363.859,168.853 362.526,167.853 361.5,166.5C 360.746,164.246 359.413,162.413 357.5,161C 352.64,146.038 357.973,139.205 373.5,140.5C 379.269,137.012 383.936,138.012 387.5,143.5 Z M 353.5,167.5 C 348.601,165.103 344.434,161.77 341,157.5C 340.333,155.167 340.333,152.833 341,150.5C 343.118,149.717 344.618,148.384 345.5,146.5C 347.701,145.261 349.868,143.928 352,142.5C 351.391,148.486 351.391,154.486 352,160.5C 350.373,158.688 348.873,158.521 347.5,160C 349.34,162.668 351.34,165.168 353.5,167.5 Z M 426.5,154.5 C 422.481,165.754 418.647,177.087 415,188.5C 410.272,191.45 405.439,194.283 400.5,197C 396.556,197.519 393.222,196.352 390.5,193.5C 392.107,188.383 395.107,184.217 399.5,181C 405.619,176.883 411.452,172.383 417,167.5C 419.199,162.424 422.366,158.09 426.5,154.5 Z M 413.5,162.5 C 414.043,162.56 414.376,162.893 414.5,163.5C 413.149,165.019 411.649,166.352 410,167.5C 409.5,167 409,166.5 408.5,166C 410.59,165.331 412.257,164.164 413.5,162.5 Z M 378.5,180.5 C 379.167,179.5 379.833,178.5 380.5,177.5C 380.415,178.995 381.081,179.995 382.5,180.5C 383.298,178.922 383.798,177.256 384,175.5C 384.483,176.448 384.649,177.448 384.5,178.5C 385.5,178.5 386.5,178.5 387.5,178.5C 387.312,176.897 387.812,175.563 389,174.5C 390.812,183.196 388.812,190.863 383,197.5C 377.213,193.63 372.546,188.63 369,182.5C 368.333,181.167 368.333,179.833 369,178.5C 371.009,180.01 372.842,181.677 374.5,183.5C 375.642,182.174 376.976,181.174 378.5,180.5 Z M 364.5,202.5 C 366.728,203.322 367.395,204.655 366.5,206.5C 365.295,205.423 364.628,204.09 364.5,202.5 Z M 378.5,202.5 C 378.5,203.833 377.833,204.5 376.5,204.5C 376.833,203.5 377.5,202.833 378.5,202.5 Z M 398.5,207.5 C 398.066,204.834 399.066,203.667 401.5,204C 400.837,205.518 399.837,206.685 398.5,207.5 Z M 387.5,204.5 C 388.674,205.514 389.34,206.847 389.5,208.5C 389.768,210.099 389.434,211.432 388.5,212.5C 387.735,209.904 387.401,207.237 387.5,204.5 Z M 382.5,205.5 C 382.809,210.267 382.309,214.934 381,219.5C 377.713,215.769 377.213,211.769 379.5,207.5C 380.357,206.575 381.357,205.908 382.5,205.5 Z"/></g>
<g><path style="opacity:0.039" fill="#a4a4a4" d="M 371.5,131.5 C 371.833,131.5 372.167,131.5 372.5,131.5C 373.795,133.372 373.628,135.038 372,136.5C 371.506,134.866 371.34,133.199 371.5,131.5 Z"/></g>
<g><path style="opacity:0.133" fill="#c3c3c3" d="M 374.5,129.5 C 374.167,130.5 373.5,131.167 372.5,131.5C 372.5,130.167 373.167,129.5 374.5,129.5 Z"/></g>
<g><path style="opacity:0.227" fill="#4f4f4f" d="M 474.5,99.5 C 474.818,94.9677 474.485,90.6344 473.5,86.5C 473.369,85.6236 473.702,84.9569 474.5,84.5C 475.814,89.6523 475.814,94.6523 474.5,99.5 Z"/></g>
<g><path style="opacity:0.067" fill="#8a8a8a" d="M 355.5,134.5 C 355.833,134.5 356.167,134.5 356.5,134.5C 356.733,136.062 357.4,137.395 358.5,138.5C 358.167,138.5 357.833,138.5 357.5,138.5C 356.833,138.167 356.167,137.833 355.5,137.5C 355.5,136.5 355.5,135.5 355.5,134.5 Z"/></g>
<g><path style="opacity:0.063" fill="#a1a1a1" d="M 366.5,164.5 C 365.596,165.209 365.263,166.209 365.5,167.5C 364.876,167.083 364.543,166.416 364.5,165.5C 364.861,163.582 365.528,163.249 366.5,164.5 Z"/></g>
<g><path style="opacity:0.02" fill="#c0c0c0" d="M 395.5,173.5 C 395.217,174.289 394.717,174.956 394,175.5C 393.472,174.184 393.972,173.517 395.5,173.5 Z"/></g>
<g><path style="opacity:0.061" fill="#b0b0b0" d="M 380.5,177.5 C 379.833,178.5 379.167,179.5 378.5,180.5C 378.34,178.801 378.506,177.134 379,175.5C 379.717,176.044 380.217,176.711 380.5,177.5 Z"/></g>
<g><path style="opacity:0.752" fill="#212121" d="M 423.5,213.5 C 425.81,209.214 426.81,209.548 426.5,214.5C 430.43,215.311 434.43,216.311 438.5,217.5C 441.448,216.657 443.281,214.657 444,211.5C 451.94,202.227 461.106,194.393 471.5,188C 473.677,186.798 476.011,186.298 478.5,186.5C 477.983,199.94 476.483,213.273 474,226.5C 473.197,229.244 472.197,231.911 471,234.5C 467.284,238.548 463.95,242.882 461,247.5C 460.66,257.351 457.826,266.351 452.5,274.5C 453.651,275.731 454.817,275.731 456,274.5C 457.577,271.011 459.411,267.677 461.5,264.5C 463.531,263.461 464.864,261.795 465.5,259.5C 468.317,254.518 472.317,250.684 477.5,248C 482.329,246.116 486.995,243.949 491.5,241.5C 493.5,241.5 495.5,241.5 497.5,241.5C 495.852,250.727 495.019,260.06 495,269.5C 493.579,275.846 491.246,281.846 488,287.5C 483.591,292.58 478.591,296.914 473,300.5C 472.997,312.406 470.83,323.739 466.5,334.5C 466.446,332.368 465.446,331.035 463.5,330.5C 465.974,321.989 467.474,313.323 468,304.5C 465.748,285.566 455.248,277.066 436.5,279C 429.876,281.814 423.209,284.314 416.5,286.5C 416.33,285.178 416.663,284.011 417.5,283C 415.825,282.015 414.158,281.181 412.5,280.5C 413.239,280.631 413.906,280.464 414.5,280C 420.151,274.524 424.818,268.357 428.5,261.5C 429.906,261.027 430.573,260.027 430.5,258.5C 432.046,254.612 434.046,250.945 436.5,247.5C 437.72,247.887 438.387,248.72 438.5,250C 434.522,260.963 428.522,270.63 420.5,279C 424.904,279.592 428.904,278.592 432.5,276C 436.773,274.97 441.106,274.303 445.5,274C 446.931,273.535 448.097,272.701 449,271.5C 465.403,239.326 455.403,221.659 419,218.5C 414.504,219.25 410.004,219.916 405.5,220.5C 406.808,219.768 408.142,218.934 409.5,218C 408.956,217.283 408.289,216.783 407.5,216.5C 408.609,215.71 409.942,215.21 411.5,215C 412.337,213.989 412.67,212.822 412.5,211.5C 413.268,212.263 413.768,213.263 414,214.5C 414.186,211.964 414.686,209.631 415.5,207.5C 415.192,209.924 415.526,212.257 416.5,214.5C 418.156,209.541 419.656,204.541 421,199.5C 423,195.5 425,191.5 427,187.5C 433.911,178.678 440.577,169.678 447,160.5C 452.136,150.113 457.469,139.78 463,129.5C 464.183,128.269 465.349,128.269 466.5,129.5C 462.238,141.466 456.738,152.799 450,163.5C 442.667,173.5 435.333,183.5 428,193.5C 424.791,199.747 422.291,206.247 420.5,213C 421.176,214.683 422.176,214.85 423.5,213.5 Z M 473.5,192.5 C 474.468,194.607 474.802,196.941 474.5,199.5C 472.99,208.878 471.156,218.211 469,227.5C 466.247,232.008 463.247,236.341 460,240.5C 459.476,236.285 457.976,232.452 455.5,229C 459.656,223.178 464.489,218.011 470,213.5C 470.749,212.365 470.583,211.365 469.5,210.5C 463.923,214.72 463.09,213.72 467,207.5C 467.798,205.741 467.631,204.074 466.5,202.5C 462.543,208.493 459.043,214.827 456,221.5C 455.904,218.549 455.071,215.882 453.5,213.5C 452.667,217.5 451.833,221.5 451,225.5C 448.812,223.312 446.645,221.145 444.5,219C 451.691,207.413 461.358,198.58 473.5,192.5 Z M 471.5,280.5 C 471.5,276.833 471.5,273.167 471.5,269.5C 470.5,269.5 469.5,269.5 468.5,269.5C 468.884,274.337 468.217,279.003 466.5,283.5C 466.167,283.833 465.833,284.167 465.5,284.5C 463.473,281.806 461.139,279.473 458.5,277.5C 464.992,262.34 475.992,252.007 491.5,246.5C 494.94,264.009 490.273,278.843 477.5,291C 475.656,292.182 473.823,293.349 472,294.5C 470.413,293.663 469.58,292.33 469.5,290.5C 474.842,283.994 480.342,277.66 486,271.5C 486.382,266.584 485.049,266.251 482,270.5C 481.833,270.167 481.667,269.833 481.5,269.5C 483.685,263.079 486.018,256.746 488.5,250.5C 487.325,250.281 486.325,250.614 485.5,251.5C 483.984,254.531 482.484,257.531 481,260.5C 480.692,259.692 480.192,259.025 479.5,258.5C 478.558,263.479 477.724,268.479 477,273.5C 475.303,276.02 473.47,278.353 471.5,280.5 Z"/></g>
<g><path style="opacity:0.041" fill="#717171" d="M 473.5,192.5 C 473.56,191.957 473.893,191.624 474.5,191.5C 475.8,194.309 475.8,196.976 474.5,199.5C 474.802,196.941 474.468,194.607 473.5,192.5 Z"/></g>
<g><path style="opacity:0.737" fill="#222222" d="M 341.5,201.5 C 341.5,202.833 340.833,203.5 339.5,203.5C 334.613,202.123 329.613,201.123 324.5,200.5C 318.284,200.979 312.284,202.312 306.5,204.5C 305.167,203.5 305.167,202.5 306.5,201.5C 310.861,199.467 315.361,197.8 320,196.5C 325.784,197.331 331.618,198.165 337.5,199C 339.066,199.608 340.4,200.442 341.5,201.5 Z"/></g>
<g><path style="opacity:0.016" fill="#bcbcbc" d="M 355.5,197.5 C 356.401,198.29 357.068,199.29 357.5,200.5C 357.167,200.5 356.833,200.5 356.5,200.5C 355.833,200.5 355.5,200.167 355.5,199.5C 355.5,198.833 355.5,198.167 355.5,197.5 Z"/></g>
<g><path style="opacity:0.803" fill="#343434" d="M 341.5,201.5 C 347.001,203.747 352.001,206.747 356.5,210.5C 355.867,210.88 355.2,211.213 354.5,211.5C 354.863,212.183 355.196,212.85 355.5,213.5C 349.902,210.564 344.568,207.23 339.5,203.5C 340.833,203.5 341.5,202.833 341.5,201.5 Z"/></g>
<g><path style="opacity:0.179" fill="#a8a8a8" d="M 389.5,208.5 C 390.634,210.966 390.801,213.633 390,216.5C 389.209,215.255 388.709,213.922 388.5,212.5C 389.434,211.432 389.768,210.099 389.5,208.5 Z"/></g>
<g><path style="opacity:0.133" fill="#b9b9b9" d="M 430.5,258.5 C 430.573,260.027 429.906,261.027 428.5,261.5C 428.427,259.973 429.094,258.973 430.5,258.5 Z"/></g>
<g><path style="opacity:0.841" fill="#222222" d="M 341.5,186.5 C 339.847,186.66 338.514,187.326 337.5,188.5C 332.023,183.678 325.857,180.011 319,177.5C 317.527,177.903 316.194,178.57 315,179.5C 309.246,187.923 302.746,195.757 295.5,203C 291.097,205.045 286.43,206.045 281.5,206C 287.661,214.166 295.661,216.833 305.5,214C 310.023,211.314 314.69,208.98 319.5,207C 329.113,206.322 338.113,208.322 346.5,213C 353.735,217.448 361.068,221.614 368.5,225.5C 369.167,225.5 369.5,225.833 369.5,226.5C 370.167,226.5 370.5,226.833 370.5,227.5C 371.376,227.369 372.043,227.702 372.5,228.5C 370.939,229.347 369.439,229.014 368,227.5C 367.536,228.094 367.369,228.761 367.5,229.5C 359.022,224.425 350.355,219.592 341.5,215C 335.916,212.415 330.083,210.582 324,209.5C 317.831,212.338 311.664,215.171 305.5,218C 316.444,220.975 326.778,225.308 336.5,231C 337.305,232.113 337.972,233.279 338.5,234.5C 336.973,234.427 335.973,235.094 335.5,236.5C 334.215,235.215 332.881,233.881 331.5,232.5C 319.879,225.517 307.212,221.517 293.5,220.5C 294.542,230.752 298.875,239.252 306.5,246C 311.632,246.29 316.632,247.124 321.5,248.5C 319.928,247.313 318.261,246.313 316.5,245.5C 316.5,245.167 316.5,244.833 316.5,244.5C 317.376,244.631 318.043,244.298 318.5,243.5C 315.412,240.399 312.078,237.733 308.5,235.5C 308.5,234.167 309.167,233.5 310.5,233.5C 311.496,233.414 312.329,233.748 313,234.5C 312.973,232.583 312.139,230.916 310.5,229.5C 311.035,227.899 312.035,227.399 313.5,228C 318.045,234.256 322.712,240.423 327.5,246.5C 329.281,248.546 331.281,248.88 333.5,247.5C 333.427,249.027 334.094,250.027 335.5,250.5C 333.177,252.395 331.344,254.728 330,257.5C 329.647,267.523 333.481,275.689 341.5,282C 348.314,286.834 355.814,290.334 364,292.5C 365.404,292.491 366.57,291.991 367.5,291C 362.655,289.75 358.655,287.25 355.5,283.5C 356.723,282.386 358.056,282.219 359.5,283C 362.472,284.988 365.639,286.488 369,287.5C 369.833,286.667 370.667,285.833 371.5,285C 366.44,279.608 360.774,274.941 354.5,271C 352.393,269.736 351.393,267.903 351.5,265.5C 353.308,265.491 354.975,265.991 356.5,267C 363.011,272.181 369.511,277.347 376,282.5C 376.5,282.333 377,282.167 377.5,282C 374.306,277.973 371.306,273.806 368.5,269.5C 369.79,268.592 371.123,268.759 372.5,270C 373.833,272.667 375.833,274.667 378.5,276C 378.167,276.333 377.833,276.667 377.5,277C 379.788,277.418 381.788,276.751 383.5,275C 379.5,269.667 375.5,264.333 371.5,259C 373.464,258.376 375.131,258.876 376.5,260.5C 381.143,265.131 385.31,270.131 389,275.5C 389.678,273.402 389.511,271.402 388.5,269.5C 389.598,268.603 389.598,267.77 388.5,267C 389.094,266.536 389.761,266.369 390.5,266.5C 390.415,267.995 391.081,268.995 392.5,269.5C 393.696,269.154 393.696,268.654 392.5,268C 393.094,267.536 393.761,267.369 394.5,267.5C 395.927,269.148 396.76,271.148 397,273.5C 397.814,267.136 398.814,260.803 400,254.5C 400.687,252.445 401.854,250.779 403.5,249.5C 403.833,250.333 404.167,251.167 404.5,252C 402.079,260.373 401.412,268.873 402.5,277.5C 403.5,277.5 404.5,277.5 405.5,277.5C 406.65,264.886 409.15,252.553 413,240.5C 413.49,236.492 414.99,235.825 417.5,238.5C 412.682,251.09 409.849,264.09 409,277.5C 411.5,274.5 414,271.5 416.5,268.5C 417.5,267.167 418.5,267.167 419.5,268.5C 417.144,272.514 414.811,276.514 412.5,280.5C 414.158,281.181 415.825,282.015 417.5,283C 416.663,284.011 416.33,285.178 416.5,286.5C 416.791,287.649 417.624,288.316 419,288.5C 425.064,286.703 431.231,286.203 437.5,287C 438.833,288 438.833,289 437.5,290C 432.115,290.214 426.781,290.714 421.5,291.5C 421.167,291.833 420.833,292.167 420.5,292.5C 425.978,293.045 431.311,293.879 436.5,295C 431.118,295.307 425.785,295.974 420.5,297C 419.663,298.011 419.33,299.178 419.5,300.5C 422.482,300.104 425.149,300.771 427.5,302.5C 427.192,303.308 426.692,303.975 426,304.5C 423.907,303.754 421.907,303.421 420,303.5C 419.202,305.259 419.369,306.926 420.5,308.5C 426.735,310.141 433.068,311.308 439.5,312C 439.957,312.414 440.291,312.914 440.5,313.5C 439.167,313.833 437.833,314.167 436.5,314.5C 429.223,312.505 421.889,311.838 414.5,312.5C 414.238,313.978 414.571,315.311 415.5,316.5C 419.083,318.36 422.749,320.027 426.5,321.5C 427.386,322.325 427.719,323.325 427.5,324.5C 423.318,323.744 419.318,322.41 415.5,320.5C 414.068,320.733 413.568,321.4 414,322.5C 415.973,323.64 417.807,324.973 419.5,326.5C 416.084,327.426 412.917,326.759 410,324.5C 409.5,324.833 409,325.167 408.5,325.5C 416.482,335.307 425.815,343.473 436.5,350C 445.593,350.244 452.926,346.744 458.5,339.5C 459.955,336.245 461.622,333.245 463.5,330.5C 465.446,331.035 466.446,332.368 466.5,334.5C 465.091,336.305 464.591,338.305 465,340.5C 480.785,354.258 491.618,371.091 497.5,391C 497.561,392.711 496.894,394.044 495.5,395C 478.834,397.794 463.334,394.627 449,385.5C 448.5,386 448,386.5 447.5,387C 450.152,394.945 450.985,403.112 450,411.5C 448.796,419.188 447.462,426.855 446,434.5C 445.221,435.728 444.221,436.728 443,437.5C 436.313,434.907 430.146,431.407 424.5,427C 414.892,418.404 407.225,408.404 401.5,397C 399.899,396.727 398.399,396.227 397,395.5C 396.5,396 396,396.5 395.5,397C 402.521,404.757 405.187,413.757 403.5,424C 402.167,424.667 400.833,424.667 399.5,424C 393.914,419.15 388.748,413.983 384,408.5C 381.195,411.653 377.695,413.319 373.5,413.5C 373.789,417.106 373.456,420.606 372.5,424C 367.091,427.211 362.257,426.378 358,421.5C 355.184,426.131 351.017,428.465 345.5,428.5C 351.059,438.272 350.725,447.772 344.5,457C 343.833,457.667 343.167,457.667 342.5,457C 338.563,452.909 336.229,448.075 335.5,442.5C 335.753,440.142 336.086,437.808 336.5,435.5C 331.333,438.927 326,439.26 320.5,436.5C 313.841,440.284 309.174,438.617 306.5,431.5C 307.067,428.474 308.067,425.641 309.5,423C 308.38,421.263 307.38,419.429 306.5,417.5C 308.486,412.327 307.319,411.327 303,414.5C 300.541,414.11 298.874,412.776 298,410.5C 296.661,421.856 291.161,430.689 281.5,437C 276.875,440.099 271.875,442.432 266.5,444C 253.699,445.287 241.699,448.953 230.5,455C 229.149,458.195 226.815,460.028 223.5,460.5C 223.338,458.473 223.505,456.473 224,454.5C 226.421,450.66 228.588,446.66 230.5,442.5C 229.553,440.941 228.887,439.274 228.5,437.5C 230.142,427.78 232.975,418.447 237,409.5C 239.772,405.612 242.272,401.612 244.5,397.5C 245.167,397.5 245.833,397.5 246.5,397.5C 247.279,399.927 248.446,399.927 250,397.5C 250.348,399.14 249.848,400.473 248.5,401.5C 247.5,401.833 246.833,402.5 246.5,403.5C 240.102,411.692 236.102,421.025 234.5,431.5C 233.475,431.897 233.308,432.563 234,433.5C 234.995,432.934 235.828,432.267 236.5,431.5C 237.263,429.632 238.263,427.965 239.5,426.5C 240.167,427.5 240.833,428.5 241.5,429.5C 238.107,435.616 235.274,441.949 233,448.5C 236.232,446.477 239.732,444.977 243.5,444C 260.837,443.402 275.671,437.235 288,425.5C 292.105,420.956 294.272,415.622 294.5,409.5C 291.507,408.865 288.507,408.699 285.5,409C 281.914,414.4 279.081,420.233 277,426.5C 275.817,427.731 274.651,427.731 273.5,426.5C 282.132,408.861 279.966,407.861 267,423.5C 264.538,428.088 262.371,432.754 260.5,437.5C 259.675,438.386 258.675,438.719 257.5,438.5C 262.72,426.605 260.72,425.438 251.5,435C 249.741,435.798 248.074,435.631 246.5,434.5C 251.52,429.812 256.52,425.145 261.5,420.5C 260.448,420.649 259.448,420.483 258.5,420C 257.167,419.333 257.167,418.667 258.5,418C 264.147,415.034 269.814,412.034 275.5,409C 277.692,407.933 279.358,406.433 280.5,404.5C 281.552,404.649 282.552,404.483 283.5,404C 282.748,403.329 282.414,402.496 282.5,401.5C 287.257,404.763 292.59,406.263 298.5,406C 300.285,408.226 302.618,409.392 305.5,409.5C 305.297,407.61 305.963,406.11 307.5,405C 306.271,403.471 304.771,402.304 303,401.5C 298.031,404.893 295.864,403.559 296.5,397.5C 300.435,397.082 300.935,396.082 298,394.5C 297.722,395.416 297.222,396.082 296.5,396.5C 295.323,394.897 295.489,393.564 297,392.5C 298.299,392.966 299.799,392.966 301.5,392.5C 302.496,392.414 303.329,392.748 304,393.5C 304.672,398.507 307.505,401.007 312.5,401C 315.613,406.25 319.613,407.25 324.5,404C 327,400.833 329.5,397.667 332,394.5C 335.545,384.311 339.045,374.144 342.5,364C 340.798,362.282 338.965,362.115 337,363.5C 334.901,370.146 332.235,376.479 329,382.5C 327.677,385.059 325.843,385.725 323.5,384.5C 327.59,376.822 331.257,368.988 334.5,361C 332.919,360.293 331.419,359.46 330,358.5C 327.527,365.289 323.861,371.289 319,376.5C 317.941,376.37 317.108,375.87 316.5,375C 321.733,369.37 324.9,362.87 326,355.5C 324.951,354.483 323.784,354.316 322.5,355C 320.512,358.501 318.178,361.668 315.5,364.5C 315.027,363.094 314.027,362.427 312.5,362.5C 314.489,359.194 316.489,355.861 318.5,352.5C 317.833,351.167 316.833,350.167 315.5,349.5C 310.295,354.707 304.295,358.707 297.5,361.5C 297.167,361 296.833,360.5 296.5,360C 299.723,356.8 303.389,354.134 307.5,352C 309.557,350.281 311.224,348.281 312.5,346C 311.722,343.61 310.555,341.443 309,339.5C 307.863,340.364 306.53,341.364 305,342.5C 302.464,343.461 299.631,343.461 296.5,342.5C 298.598,340.796 300.931,339.463 303.5,338.5C 305.38,338.771 306.713,338.104 307.5,336.5C 307.938,336.565 308.272,336.399 308.5,336C 307.914,333.72 307.08,331.553 306,329.5C 305.147,331.125 304.147,331.458 303,330.5C 299.048,331.988 295.048,333.321 291,334.5C 290.51,333.207 290.343,331.873 290.5,330.5C 295.934,329.445 301.268,327.945 306.5,326C 307.406,324.301 307.739,322.467 307.5,320.5C 293.398,318.779 280.398,321.612 268.5,329C 266.718,331.243 266.218,333.743 267,336.5C 270.978,339.083 274.811,341.749 278.5,344.5C 278.427,346.027 279.094,347.027 280.5,347.5C 280.841,351.16 280.175,354.493 278.5,357.5C 278.539,356.244 278.039,355.244 277,354.5C 276.901,356.653 276.067,358.319 274.5,359.5C 274.631,358.761 274.464,358.094 274,357.5C 271.084,359.013 268.418,358.68 266,356.5C 265.493,355.004 265.993,353.837 267.5,353C 263.624,351.138 262.958,348.638 265.5,345.5C 263.5,345.5 261.5,345.5 259.5,345.5C 259.343,344.127 259.51,342.793 260,341.5C 263.969,338.443 264.469,334.776 261.5,330.5C 259.926,329.369 258.259,329.202 256.5,330C 255.529,331.481 254.196,332.315 252.5,332.5C 251.791,331.596 250.791,331.263 249.5,331.5C 249.833,330.5 250.5,329.833 251.5,329.5C 252.043,329.44 252.376,329.107 252.5,328.5C 251.311,327.571 249.978,327.238 248.5,327.5C 241.035,326.29 234.035,323.79 227.5,320C 217.219,313.053 207.219,305.72 197.5,298C 195.393,296.736 194.393,294.903 194.5,292.5C 197.825,293.16 201.158,293.826 204.5,294.5C 219.351,290.748 234.351,289.914 249.5,292C 260.411,294.641 270.744,298.641 280.5,304C 290.128,304.752 299.628,306.252 309,308.5C 310.261,308.241 311.261,307.574 312,306.5C 313.598,301.468 316.098,296.968 319.5,293C 327.786,291.449 336.12,290.116 344.5,289C 342.13,286.63 339.296,285.13 336,284.5C 330.099,286.101 324.266,287.934 318.5,290C 306.6,292.864 294.6,292.864 282.5,290C 270.707,285.029 260.207,278.195 251,269.5C 250.316,268.216 250.483,267.049 251.5,266C 260.487,261.689 268.987,256.522 277,250.5C 284.249,247.585 291.749,245.752 299.5,245C 293.907,236.646 290.407,227.479 289,217.5C 281.518,213.816 276.351,208.149 273.5,200.5C 278.699,202.133 284.033,202.633 289.5,202C 292.965,199.537 296.131,196.704 299,193.5C 303.406,186.424 308.572,179.924 314.5,174C 317.5,173.333 320.5,173.333 323.5,174C 330.238,177.178 336.238,181.345 341.5,186.5 Z M 320.5,269.5 C 319.833,270.833 319.167,272.167 318.5,273.5C 316.251,274.08 314.585,275.413 313.5,277.5C 311.727,278.314 311.227,279.648 312,281.5C 317.602,278.229 322.602,274.229 327,269.5C 328.663,273.496 330.829,277.163 333.5,280.5C 317.216,288.654 300.216,290.487 282.5,286C 272.828,281.167 263.828,275.333 255.5,268.5C 264.744,262.737 274.077,257.237 283.5,252C 297.704,248.286 311.704,248.953 325.5,254C 326.279,257.693 325.946,261.36 324.5,265C 313.682,267.203 303.016,266.703 292.5,263.5C 290.833,263.833 289.167,264.167 287.5,264.5C 290.58,266.29 293.913,267.79 297.5,269C 289.423,269.098 281.423,269.765 273.5,271C 272.167,271.667 272.167,272.333 273.5,273C 276.394,274.567 279.394,274.733 282.5,273.5C 282.67,274.822 282.337,275.989 281.5,277C 282,277.5 282.5,278 283,278.5C 286.952,276.223 291.119,274.39 295.5,273C 303.768,271.307 312.102,270.14 320.5,269.5 Z M 335.5,236.5 C 335.962,238.757 336.962,240.757 338.5,242.5C 336.812,244.188 335.146,245.854 333.5,247.5C 331.281,248.88 329.281,248.546 327.5,246.5C 322.712,240.423 318.045,234.256 313.5,228C 312.035,227.399 311.035,227.899 310.5,229.5C 312.139,230.916 312.973,232.583 313,234.5C 312.329,233.748 311.496,233.414 310.5,233.5C 309.791,232.596 308.791,232.263 307.5,232.5C 307.263,233.791 307.596,234.791 308.5,235.5C 312.078,237.733 315.412,240.399 318.5,243.5C 318.043,244.298 317.376,244.631 316.5,244.5C 315.245,242.359 313.578,241.693 311.5,242.5C 312.94,243.952 314.606,244.952 316.5,245.5C 318.261,246.313 319.928,247.313 321.5,248.5C 316.632,247.124 311.632,246.29 306.5,246C 298.875,239.252 294.542,230.752 293.5,220.5C 307.212,221.517 319.879,225.517 331.5,232.5C 332.881,233.881 334.215,235.215 335.5,236.5 Z M 394.5,284.5 C 394.833,283.167 395.167,281.833 395.5,280.5C 396.151,279.909 396.818,279.243 397.5,278.5C 402.098,282.772 401.098,284.772 394.5,284.5 Z M 389.5,283.5 C 389.833,284.167 390.167,284.833 390.5,285.5C 388.139,285.674 385.806,286.007 383.5,286.5C 383.261,284.533 383.594,282.699 384.5,281C 386.928,280.253 388.594,281.086 389.5,283.5 Z M 397.5,290.5 C 399.983,290.73 400.483,291.397 399,292.5C 397.97,292.164 397.47,291.497 397.5,290.5 Z M 351.5,299.5 C 350.957,299.56 350.624,299.893 350.5,300.5C 352.743,301.474 355.076,301.808 357.5,301.5C 359.527,301.338 361.527,301.505 363.5,302C 358.722,303.556 354.055,305.39 349.5,307.5C 348.3,309.107 348.8,310.107 351,310.5C 356.635,307.967 362.469,306.467 368.5,306C 367.773,308.124 367.106,310.291 366.5,312.5C 360.808,315.014 355.141,317.514 349.5,320C 346.81,321.698 344.477,323.698 342.5,326C 342.833,326.5 343.167,327 343.5,327.5C 347.998,326.222 351.998,324.055 355.5,321C 359.929,319.407 364.262,317.574 368.5,315.5C 369.262,316.628 369.929,317.795 370.5,319C 368.043,320.562 365.376,321.562 362.5,322C 360.939,322.941 359.605,324.108 358.5,325.5C 359,325.833 359.5,326.167 360,326.5C 363.94,325.014 367.94,323.681 372,322.5C 373.059,322.63 373.892,323.13 374.5,324C 367.333,330.409 359.666,336.076 351.5,341C 359.713,340.014 366.713,336.347 372.5,330C 374.948,329.147 375.614,329.647 374.5,331.5C 373.094,331.973 372.427,332.973 372.5,334.5C 366.779,340.724 360.779,346.891 354.5,353C 350.876,355.643 347.043,357.81 343,359.5C 333.258,355.426 324.258,350.092 316,343.5C 313.104,337.884 311.271,331.884 310.5,325.5C 312.293,315.985 315.459,306.985 320,298.5C 322.993,296.019 326.493,294.519 330.5,294C 341.91,292.45 352.91,293.783 363.5,298C 359.312,298.176 355.312,298.676 351.5,299.5 Z M 371.5,294.5 C 372.801,296.456 372.301,298.123 370,299.5C 369.5,299 369,298.5 368.5,298C 369.71,296.961 370.71,295.794 371.5,294.5 Z M 238.5,306.5 C 232.463,306.043 226.63,304.709 221,302.5C 220.5,302.833 220,303.167 219.5,303.5C 221.952,306.059 224.952,307.559 228.5,308C 226.027,308.22 224.36,309.386 223.5,311.5C 217.449,307.962 211.782,303.795 206.5,299C 230.276,292.326 252.943,294.659 274.5,306C 269.745,307.21 265.078,308.71 260.5,310.5C 254.312,309.07 248.646,306.57 243.5,303C 239.689,301.261 235.689,300.428 231.5,300.5C 231.5,301.5 231.5,302.5 231.5,303.5C 234.346,303.552 236.68,304.552 238.5,306.5 Z M 399.5,297.5 C 400.497,296.287 401.497,296.454 402.5,298C 401.281,299.795 400.281,299.628 399.5,297.5 Z M 387.5,297.5 C 388.995,297.415 389.995,298.081 390.5,299.5C 389.68,301.111 388.346,301.778 386.5,301.5C 386.433,300.041 386.766,298.708 387.5,297.5 Z M 394.5,297.5 C 395.289,297.783 395.956,298.283 396.5,299C 395.184,299.528 394.517,299.028 394.5,297.5 Z M 381.5,299.5 C 382.404,300.209 382.737,301.209 382.5,302.5C 381.761,302.631 381.094,302.464 380.5,302C 381.252,301.329 381.586,300.496 381.5,299.5 Z M 394.5,303.5 C 396.912,303.694 397.912,305.027 397.5,307.5C 396.5,307.5 395.5,307.5 394.5,307.5C 394.5,306.167 394.5,304.833 394.5,303.5 Z M 401.5,303.5 C 403.337,303.639 403.67,304.306 402.5,305.5C 401.702,305.043 401.369,304.376 401.5,303.5 Z M 387.5,304.5 C 388.5,304.5 389.5,304.5 390.5,304.5C 390.5,305.833 390.5,307.167 390.5,308.5C 389.5,308.5 388.5,308.5 387.5,308.5C 387.5,307.167 387.5,305.833 387.5,304.5 Z M 381.5,306.5 C 382.573,307.251 382.74,308.251 382,309.5C 380.272,308.648 380.105,307.648 381.5,306.5 Z M 279.5,308.5 C 286.788,310.951 295.121,312.451 304.5,313C 306.044,313.29 307.377,313.956 308.5,315C 300.927,313.77 293.26,313.437 285.5,314C 284.185,315.395 284.519,316.395 286.5,317C 278.883,318.644 271.883,321.644 265.5,326C 261.26,327.539 258.593,326.206 257.5,322C 258.563,319.102 260.23,316.602 262.5,314.5C 268.162,312.154 273.828,310.154 279.5,308.5 Z M 238.5,316.5 C 238.167,316.5 237.833,316.5 237.5,316.5C 235.204,316.804 234.871,317.804 236.5,319.5C 231.66,317.661 227.327,314.995 223.5,311.5C 232.207,310.036 240.874,310.203 249.5,312C 245.46,312.824 241.793,314.324 238.5,316.5 Z M 395.5,311.5 C 398.012,312.216 398.012,313.216 395.5,314.5C 394.913,313.767 394.913,312.767 395.5,311.5 Z M 388.5,312.5 C 389.776,313.386 389.776,314.386 388.5,315.5C 387.438,314.575 387.438,313.575 388.5,312.5 Z M 236.5,319.5 C 237.167,319.5 237.5,319.167 237.5,318.5C 239.099,318.768 240.432,318.434 241.5,317.5C 246.316,316.296 251.149,315.296 256,314.5C 255.123,317.522 254.29,320.689 253.5,324C 247.634,323.056 241.967,321.556 236.5,319.5 Z M 379.5,322.5 C 383.829,322.793 385.162,324.793 383.5,328.5C 379.932,328.241 378.599,326.241 379.5,322.5 Z M 402.5,322.5 C 403.867,324.093 403.534,325.426 401.5,326.5C 401.167,326 400.833,325.5 400.5,325C 401.056,323.989 401.722,323.156 402.5,322.5 Z M 390.5,324.5 C 395.049,324.932 395.549,326.599 392,329.5C 389.676,328.225 389.176,326.558 390.5,324.5 Z M 387.5,348.5 C 388.209,349.404 389.209,349.737 390.5,349.5C 390.5,347.167 390.5,344.833 390.5,342.5C 391.084,339.527 391.751,336.527 392.5,333.5C 393.478,333.977 394.311,334.643 395,335.5C 395.278,341.957 396.278,348.29 398,354.5C 399.789,357.179 400.955,357.013 401.5,354C 400.002,346.508 398.668,339.008 397.5,331.5C 398.167,331.5 398.833,331.5 399.5,331.5C 400.117,331.611 400.617,331.944 401,332.5C 401.601,337.017 402.768,341.35 404.5,345.5C 405.415,344.672 406.081,343.672 406.5,342.5C 404.815,338.339 404.148,334.006 404.5,329.5C 405.675,329.281 406.675,329.614 407.5,330.5C 414.384,342.934 420.717,355.601 426.5,368.5C 424.406,380.655 417.406,388.155 405.5,391C 389.055,394.851 374.888,391.017 363,379.5C 359.289,373.885 358.622,367.885 361,361.5C 364.933,350.619 371.099,341.286 379.5,333.5C 379.833,334.333 380.167,335.167 380.5,336C 378.337,342.041 376.337,348.208 374.5,354.5C 375,354.833 375.5,355.167 376,355.5C 378.942,349.781 381.775,343.948 384.5,338C 384.077,335.624 384.911,333.457 387,331.5C 387.499,337.157 387.666,342.824 387.5,348.5 Z M 423.5,349.5 C 434.373,357.102 443.706,366.269 451.5,377C 452.448,377.483 453.448,377.649 454.5,377.5C 453.56,374.286 452.06,371.286 450,368.5C 446.99,365.657 444.157,362.657 441.5,359.5C 454.681,363.44 465.014,371.273 472.5,383C 473.448,383.483 474.448,383.649 475.5,383.5C 474.215,380.526 472.882,377.526 471.5,374.5C 474.359,376.429 477.359,378.096 480.5,379.5C 480.256,376.737 478.923,374.571 476.5,373C 470.801,368.818 464.801,365.152 458.5,362C 459.448,361.517 460.448,361.351 461.5,361.5C 463.262,361.357 464.929,361.691 466.5,362.5C 469.044,361.265 469.044,360.099 466.5,359C 463.854,358.503 461.187,358.336 458.5,358.5C 453.284,357.507 447.951,356.507 442.5,355.5C 443.5,354.833 444.5,354.167 445.5,353.5C 451.826,351.584 457.326,348.251 462,343.5C 476.889,356.137 487.389,371.637 493.5,390C 490.448,393.014 486.781,394.014 482.5,393C 463.654,388.906 446.654,381.073 431.5,369.5C 429.408,362.548 426.741,355.881 423.5,349.5 Z M 273.5,347.5 C 277.271,348.676 277.104,350.01 273,351.5C 272.805,350.181 272.972,348.847 273.5,347.5 Z M 357.5,356.5 C 356.012,361.348 355.179,366.348 355,371.5C 352.534,372.777 350.034,372.777 347.5,371.5C 348.244,368.557 348.744,365.557 349,362.5C 351.599,360.121 354.433,358.121 357.5,356.5 Z M 431.5,374.5 C 434.992,377.842 438.825,380.842 443,383.5C 446.229,395.448 446.895,407.448 445,419.5C 444.237,424.015 443.07,428.349 441.5,432.5C 426.24,423.967 414.573,411.967 406.5,396.5C 410.556,394.136 414.89,392.136 419.5,390.5C 421.297,392.131 422.464,394.131 423,396.5C 423.375,401.21 424.042,405.877 425,410.5C 425.414,410.957 425.914,411.291 426.5,411.5C 427.314,409.234 427.814,406.9 428,404.5C 429.84,409.52 432.673,413.854 436.5,417.5C 437.489,415.412 437.156,413.412 435.5,411.5C 437.021,411.12 438.687,410.954 440.5,411C 437.631,407.796 434.465,404.963 431,402.5C 428.005,397.263 425.672,391.929 424,386.5C 427.734,389.952 431.9,392.785 436.5,395C 437.944,395.781 439.277,395.614 440.5,394.5C 435.101,391.14 430.101,387.307 425.5,383C 427.178,380.806 428.178,378.306 428.5,375.5C 429.391,374.89 430.391,374.557 431.5,374.5 Z M 352.5,395.5 C 347.476,388.936 347.309,382.27 352,375.5C 358.227,381.407 359.893,388.407 357,396.5C 356.887,394.026 355.887,392.026 354,390.5C 352.731,391.905 352.231,393.571 352.5,395.5 Z M 342.5,381.5 C 343.167,381.5 343.833,381.5 344.5,381.5C 344.663,383.857 344.497,386.19 344,388.5C 342.951,389.517 341.784,389.684 340.5,389C 341.554,386.618 342.221,384.118 342.5,381.5 Z M 363.5,385.5 C 363.167,386.5 362.5,387.167 361.5,387.5C 361.5,386.167 362.167,385.5 363.5,385.5 Z M 367.5,390.5 C 368.473,390.987 369.473,391.487 370.5,392C 368.612,394.19 366.445,396.023 364,397.5C 363.176,394.16 364.343,391.827 367.5,390.5 Z M 342.5,394.5 C 347.319,395.839 349.319,398.839 348.5,403.5C 345.899,406.001 343.399,406.001 341,403.5C 340.207,400.259 340.707,397.259 342.5,394.5 Z M 384.5,395.5 C 388.16,400.467 392.493,404.8 397.5,408.5C 398.96,411.029 399.46,413.696 399,416.5C 391.702,411.721 386.535,405.388 383.5,397.5C 383.328,396.508 383.662,395.842 384.5,395.5 Z M 280.5,404.5 C 279.358,406.433 277.692,407.933 275.5,409C 269.814,412.034 264.147,415.034 258.5,418C 257.167,418.667 257.167,419.333 258.5,420C 259.448,420.483 260.448,420.649 261.5,420.5C 256.52,425.145 251.52,429.812 246.5,434.5C 248.074,435.631 249.741,435.798 251.5,435C 260.72,425.438 262.72,426.605 257.5,438.5C 258.675,438.719 259.675,438.386 260.5,437.5C 262.371,432.754 264.538,428.088 267,423.5C 279.966,407.861 282.132,408.861 273.5,426.5C 274.651,427.731 275.817,427.731 277,426.5C 279.081,420.233 281.914,414.4 285.5,409C 288.507,408.699 291.507,408.865 294.5,409.5C 294.272,415.622 292.105,420.956 288,425.5C 275.671,437.235 260.837,443.402 243.5,444C 239.732,444.977 236.232,446.477 233,448.5C 235.274,441.949 238.107,435.616 241.5,429.5C 245.31,423.899 249.144,418.232 253,412.5C 259.275,406.525 266.275,401.525 274,397.5C 276.625,399.425 278.792,401.758 280.5,404.5 Z M 334.5,398.5 C 334.706,403.298 334.706,407.964 334.5,412.5C 332.22,411.245 331.053,409.245 331,406.5C 330.25,405.874 329.416,405.374 328.5,405C 330.293,402.612 332.293,400.446 334.5,398.5 Z M 352.5,398.5 C 355.199,401.272 354.866,401.772 351.5,400C 352.056,399.617 352.389,399.117 352.5,398.5 Z M 366.5,399.5 C 369.398,399.91 372.398,400.076 375.5,400C 378.041,401.848 379.041,404.348 378.5,407.5C 374.33,409.229 369.997,409.729 365.5,409C 367.345,407.577 369.345,406.41 371.5,405.5C 369.725,404.043 367.725,402.876 365.5,402C 366.252,401.329 366.586,400.496 366.5,399.5 Z M 248.5,401.5 C 248.5,402.833 247.833,403.5 246.5,403.5C 246.833,402.5 247.5,401.833 248.5,401.5 Z M 252.5,402.5 C 252.818,405.481 251.818,407.815 249.5,409.5C 249.182,406.519 250.182,404.185 252.5,402.5 Z M 246.5,403.5 C 245.868,407.561 244.535,411.394 242.5,415C 242.833,416 243.167,417 243.5,418C 241.916,420.74 240.583,423.573 239.5,426.5C 238.263,427.965 237.263,429.632 236.5,431.5C 235.833,431.5 235.167,431.5 234.5,431.5C 236.102,421.025 240.102,411.692 246.5,403.5 Z M 357.5,404.5 C 358.833,404.5 360.167,404.5 361.5,404.5C 360.674,408.595 359.007,409.095 356.5,406C 357.056,405.617 357.389,405.117 357.5,404.5 Z M 324.5,408.5 C 328.984,408.725 329.651,410.392 326.5,413.5C 324.922,414.072 323.422,414.406 322,414.5C 321.972,412.213 322.805,410.213 324.5,408.5 Z M 351.5,410.5 C 351.517,408.972 352.184,408.472 353.5,409C 352.956,409.717 352.289,410.217 351.5,410.5 Z M 342.5,413.5 C 341.833,414.833 341.167,416.167 340.5,417.5C 340.682,415.409 340.348,413.409 339.5,411.5C 340.325,410.614 341.325,410.281 342.5,410.5C 342.5,411.5 342.5,412.5 342.5,413.5 Z M 351.5,410.5 C 350.906,412.855 349.906,415.022 348.5,417C 348.63,418.059 349.13,418.892 350,419.5C 351.333,418.167 352.667,416.833 354,415.5C 353.862,420.327 351.362,422.493 346.5,422C 345.446,420.612 345.28,419.112 346,417.5C 347.391,414.664 349.224,412.331 351.5,410.5 Z M 312.5,412.5 C 317.875,413.248 318.709,415.581 315,419.5C 311.564,418.086 310.73,415.753 312.5,412.5 Z M 359.5,413.5 C 361.369,415.034 362.702,417.034 363.5,419.5C 361.262,418.147 359.929,416.147 359.5,413.5 Z M 366.5,414.5 C 368.25,415.659 369.25,417.326 369.5,419.5C 368.833,419.167 368.167,418.833 367.5,418.5C 366.766,417.292 366.433,415.959 366.5,414.5 Z M 330.5,417.5 C 335.244,417.038 336.244,418.538 333.5,422C 332.563,422.692 331.897,422.525 331.5,421.5C 332.471,420.038 332.138,418.705 330.5,417.5 Z M 314.5,427.5 C 314.517,425.972 315.184,425.472 316.5,426C 315.956,426.717 315.289,427.217 314.5,427.5 Z M 324.5,431.5 C 325.496,431.586 326.329,431.252 327,430.5C 326.591,428.775 326.758,427.108 327.5,425.5C 334.121,428.393 334.121,431.393 327.5,434.5C 325.787,434.121 324.787,433.121 324.5,431.5 Z M 314.5,427.5 C 313.766,428.708 313.433,430.041 313.5,431.5C 314.5,431.5 315.5,431.5 316.5,431.5C 314.287,434.24 312.954,433.74 312.5,430C 312.684,428.624 313.351,427.791 314.5,427.5 Z M 340.5,436.5 C 341.167,437.167 341.833,437.833 342.5,438.5C 342.5,440.5 342.5,442.5 342.5,444.5C 343.675,444.281 344.675,444.614 345.5,445.5C 344.811,447.444 344.311,449.444 344,451.5C 340.782,447.103 339.615,442.103 340.5,436.5 Z"/></g>
<g><path style="opacity:0.606" fill="#2d2d2d" d="M 389.5,260.5 C 390.906,260.027 391.573,259.027 391.5,257.5C 393.277,260.505 394.277,263.838 394.5,267.5C 393.761,267.369 393.094,267.536 392.5,268C 393.696,268.654 393.696,269.154 392.5,269.5C 391.081,268.995 390.415,267.995 390.5,266.5C 389.761,266.369 389.094,266.536 388.5,267C 389.598,267.77 389.598,268.603 388.5,269.5C 384.97,263.614 381.304,257.78 377.5,252C 378.275,250.77 379.275,250.437 380.5,251C 383.699,254.566 386.533,258.4 389,262.5C 389.464,261.906 389.631,261.239 389.5,260.5 Z"/></g>
<g><path style="opacity:0.227" fill="#7b7b7b" d="M 316.5,244.5 C 316.5,244.833 316.5,245.167 316.5,245.5C 314.606,244.952 312.94,243.952 311.5,242.5C 313.578,241.693 315.245,242.359 316.5,244.5 Z"/></g>
<g><path style="opacity:0.055" fill="#b8b8b8" d="M 310.5,233.5 C 309.167,233.5 308.5,234.167 308.5,235.5C 307.596,234.791 307.263,233.791 307.5,232.5C 308.791,232.263 309.791,232.596 310.5,233.5 Z"/></g>
<g><path style="opacity:0.29" fill="#7e7e7e" d="M 465.5,259.5 C 464.864,261.795 463.531,263.461 461.5,264.5C 462.124,262.246 463.457,260.579 465.5,259.5 Z"/></g>
<g><path style="opacity:0.204" fill="#888888" d="M 318.5,273.5 C 317.415,275.587 315.749,276.92 313.5,277.5C 314.585,275.413 316.251,274.08 318.5,273.5 Z"/></g>
<g><path style="opacity:0.082" fill="#7c7c7c" d="M 395.5,280.5 C 395.167,281.833 394.833,283.167 394.5,284.5C 393.432,285.434 392.099,285.768 390.5,285.5C 390.167,284.833 389.833,284.167 389.5,283.5C 390.583,283.539 391.583,283.873 392.5,284.5C 393.15,282.816 394.15,281.483 395.5,280.5 Z"/></g>
<g><path style="opacity:0.067" fill="#959595" d="M 404.5,291.5 C 406.337,291.639 406.67,292.306 405.5,293.5C 404.702,293.043 404.369,292.376 404.5,291.5 Z"/></g>
<g><path style="opacity:0.131" fill="#bfbfbf" d="M 351.5,299.5 C 353.5,300.167 355.5,300.833 357.5,301.5C 355.076,301.808 352.743,301.474 350.5,300.5C 350.624,299.893 350.957,299.56 351.5,299.5 Z"/></g>
<g><path style="opacity:0.053" fill="#d0d0d0" d="M 381.5,299.5 C 381.586,300.496 381.252,301.329 380.5,302C 381.094,302.464 381.761,302.631 382.5,302.5C 382.737,301.209 382.404,300.209 381.5,299.5 Z"/></g>
<g><path style="opacity:0.016" fill="#b0b0b0" d="M 413.5,307.5 C 413.73,305.017 414.397,304.517 415.5,306C 415.164,307.03 414.497,307.53 413.5,307.5 Z"/></g>
<g><path style="opacity:0.208" fill="#1b1b1b" d="M 237.5,316.5 C 237.5,317.167 237.5,317.833 237.5,318.5C 237.5,319.167 237.167,319.5 236.5,319.5C 234.871,317.804 235.204,316.804 237.5,316.5 Z"/></g>
<g><path style="opacity:0.051" fill="#c4c4c4" d="M 237.5,316.5 C 237.833,316.5 238.167,316.5 238.5,316.5C 239.209,317.404 240.209,317.737 241.5,317.5C 240.432,318.434 239.099,318.768 237.5,318.5C 237.5,317.833 237.5,317.167 237.5,316.5 Z"/></g>
<g><path style="opacity:0.047" fill="#9b9b9b" d="M 248.5,327.5 C 249.978,327.238 251.311,327.571 252.5,328.5C 252.376,329.107 252.043,329.44 251.5,329.5C 250.5,328.833 249.5,328.167 248.5,327.5 Z"/></g>
<g><path style="opacity:0.02" fill="#bfbfbf" d="M 399.5,331.5 C 398.833,331.5 398.167,331.5 397.5,331.5C 397.786,329.067 398.452,329.067 399.5,331.5 Z"/></g>
<g><path style="opacity:0.282" fill="#939393" d="M 374.5,331.5 C 374.573,333.027 373.906,334.027 372.5,334.5C 372.427,332.973 373.094,331.973 374.5,331.5 Z"/></g>
<g><path style="opacity:0.004" fill="#d2d2d2" d="M 307.5,336.5 C 306.713,338.104 305.38,338.771 303.5,338.5C 304.514,337.326 305.847,336.66 307.5,336.5 Z"/></g>
<g><path style="opacity:0.856" fill="#191919" d="M 249.5,331.5 C 250.791,331.263 251.791,331.596 252.5,332.5C 251.767,334.963 250.767,337.297 249.5,339.5C 254.47,346.438 255.137,353.604 251.5,361C 253.866,366.058 257.199,370.391 261.5,374C 267.103,374.532 271.436,372.365 274.5,367.5C 271.417,367.037 268.751,365.871 266.5,364C 267.836,360.168 270.503,358.668 274.5,359.5C 276.067,358.319 276.901,356.653 277,354.5C 278.039,355.244 278.539,356.244 278.5,357.5C 278.5,360.833 278.5,364.167 278.5,367.5C 284.541,368.034 287.541,371.367 287.5,377.5C 290.446,378.655 293.446,378.821 296.5,378C 302.363,373.302 307.697,368.135 312.5,362.5C 314.027,362.427 315.027,363.094 315.5,364.5C 313.83,367.832 311.663,370.832 309,373.5C 300.79,377.877 298.29,384.211 301.5,392.5C 299.799,392.966 298.299,392.966 297,392.5C 295.489,393.564 295.323,394.897 296.5,396.5C 296.5,396.833 296.5,397.167 296.5,397.5C 292.201,399.594 290.201,398.26 290.5,393.5C 288.5,393.5 286.5,393.5 284.5,393.5C 284.5,391.5 284.5,389.5 284.5,387.5C 286.403,387.204 288.07,386.537 289.5,385.5C 290.429,384.685 291.429,383.852 292.5,383C 290.527,382.505 288.527,382.338 286.5,382.5C 285.767,384.294 284.767,385.961 283.5,387.5C 278.841,387.985 277.508,386.152 279.5,382C 274.068,381.623 272.735,379.29 275.5,375C 277.101,374.727 278.601,374.227 280,373.5C 280.432,372.4 279.932,371.733 278.5,371.5C 275.385,373.439 272.385,375.606 269.5,378C 268.128,379.242 267.128,380.742 266.5,382.5C 269.5,387.5 273.5,391.5 278.5,394.5C 280.098,396.698 281.431,399.031 282.5,401.5C 282.414,402.496 282.748,403.329 283.5,404C 282.552,404.483 281.552,404.649 280.5,404.5C 278.792,401.758 276.625,399.425 274,397.5C 266.275,401.525 259.275,406.525 253,412.5C 249.144,418.232 245.31,423.899 241.5,429.5C 240.833,428.5 240.167,427.5 239.5,426.5C 240.583,423.573 241.916,420.74 243.5,418C 243.167,417 242.833,416 242.5,415C 244.535,411.394 245.868,407.561 246.5,403.5C 247.833,403.5 248.5,402.833 248.5,401.5C 249.848,400.473 250.348,399.14 250,397.5C 248.446,399.927 247.279,399.927 246.5,397.5C 245.833,396.167 245.167,396.167 244.5,397.5C 242.4,399.498 240.4,401.665 238.5,404C 235.341,404.011 232.507,404.845 230,406.5C 229.586,406.043 229.086,405.709 228.5,405.5C 227.675,411.645 225.675,417.312 222.5,422.5C 222.167,422.5 221.833,422.5 221.5,422.5C 220.662,422.158 220.328,421.492 220.5,420.5C 220.167,417.833 219.833,417.833 219.5,420.5C 219.167,420.5 218.833,420.5 218.5,420.5C 218.5,418.5 218.5,416.5 218.5,414.5C 220.399,412.747 221.065,410.747 220.5,408.5C 212.301,415.093 205.301,422.76 199.5,431.5C 198.5,430.833 197.5,430.167 196.5,429.5C 200.889,421.276 206.889,414.443 214.5,409C 211.768,408.846 209.102,409.346 206.5,410.5C 204.322,416.198 200.322,419.365 194.5,420C 187.323,426.344 180.323,432.844 173.5,439.5C 169.793,444.268 166.626,449.268 164,454.5C 163.055,454.095 162.388,453.428 162,452.5C 161.165,443.34 162.832,434.673 167,426.5C 170.809,423.363 174.642,420.197 178.5,417C 170.503,416.933 162.503,417.266 154.5,418C 152.392,418.36 150.392,419.027 148.5,420C 146.022,426.761 143.522,433.595 141,440.5C 121.529,458.04 116.195,454.373 125,429.5C 128.588,425.24 132.754,421.74 137.5,419C 125.856,417.613 114.19,416.946 102.5,417C 98.7785,421.388 94.4451,425.055 89.5,428C 80.5255,429.829 71.5255,431.329 62.5,432.5C 61.1667,432.167 59.8333,431.833 58.5,431.5C 60.9865,427.907 63.9865,424.74 67.5,422C 74.1488,418.513 81.1488,415.846 88.5,414C 84.9077,412.919 81.2411,411.919 77.5,411C 68.5883,410.184 59.755,410.35 51,411.5C 41.268,410.552 32.1013,407.719 23.5,403C 18.8109,400.999 18.4776,398.666 22.5,396C 25.7055,395.11 28.7055,395.443 31.5,397C 29.913,397.862 28.2464,398.529 26.5,399C 30.3061,402.214 34.6394,404.38 39.5,405.5C 40.9899,407.28 42.9899,407.946 45.5,407.5C 48.3409,407.847 50.3409,407.513 51.5,406.5C 50.3915,405.71 49.0581,405.21 47.5,405C 49.8098,404.503 52.1432,404.337 54.5,404.5C 55.8734,404.657 57.2068,404.49 58.5,404C 54.1434,401.155 49.4768,398.822 44.5,397C 47.6335,395.43 50.9668,395.097 54.5,396C 60.0021,399.585 65.6688,402.919 71.5,406C 77.1504,407.449 82.817,408.449 88.5,409C 83.5886,405.922 79.9219,401.756 77.5,396.5C 78.723,395.386 80.0563,395.219 81.5,396C 82.8804,397.925 84.3804,399.759 86,401.5C 86.3333,400.833 86.6667,400.167 87,399.5C 89.292,400.79 91.292,402.457 93,404.5C 93.6667,403.5 93.6667,402.5 93,401.5C 89.9445,397.952 87.1111,394.285 84.5,390.5C 85,389.5 85.5,388.5 86,387.5C 88.6667,390.167 91.3333,392.833 94,395.5C 96.2755,401.219 99.4421,406.385 103.5,411C 108.507,412.255 113.507,412.422 118.5,411.5C 114.872,409.924 112.372,407.257 111,403.5C 109.237,395.539 108.07,387.205 107.5,378.5C 107.5,377.167 108.167,376.5 109.5,376.5C 112.425,378.318 114.925,380.651 117,383.5C 119.541,388.513 121.207,393.846 122,399.5C 124.899,406.732 130.066,411.565 137.5,414C 152.062,414.267 166.728,413.267 181.5,411C 174.999,410.58 169.332,408.246 164.5,404C 159.525,404.328 154.525,404.328 149.5,404C 147.099,401.938 144.433,400.271 141.5,399C 140.707,397.915 140.04,396.748 139.5,395.5C 142.075,392.681 144.408,389.681 146.5,386.5C 142.938,383.566 139.271,380.899 135.5,378.5C 136.833,378.167 138.167,377.833 139.5,377.5C 147.194,378.567 154.86,379.733 162.5,381C 164.167,382 165.833,383 167.5,384C 173.516,384.499 179.516,384.332 185.5,383.5C 185.642,380.383 186.976,377.883 189.5,376C 188.833,375.333 188.167,374.667 187.5,374C 184.179,375.604 180.513,376.771 176.5,377.5C 172.857,377.232 169.69,375.899 167,373.5C 165.722,370.078 163.888,367.078 161.5,364.5C 167.16,356.52 174.827,353.854 184.5,356.5C 185.887,358.21 187.221,359.877 188.5,361.5C 188.065,358.404 187.565,355.404 187,352.5C 192.848,348.158 199.348,346.658 206.5,348C 209.581,349.312 211.248,351.645 211.5,355C 214.146,355.497 216.813,355.664 219.5,355.5C 218.961,351.842 218.627,348.342 218.5,345C 225.68,341.419 232.513,341.919 239,346.5C 239.579,350.203 239.412,353.869 238.5,357.5C 241.968,358.152 245.135,359.485 248,361.5C 248.755,358.312 249.589,355.145 250.5,352C 248.598,347.93 246.931,343.763 245.5,339.5C 246.339,336.489 247.672,333.823 249.5,331.5 Z M 215.5,360.5 C 224.284,359.832 231.618,362.998 237.5,370C 237.095,370.945 236.428,371.612 235.5,372C 232.308,372.197 229.308,373.03 226.5,374.5C 223.6,369.263 219.933,364.596 215.5,360.5 Z M 208.5,360.5 C 213.316,363.151 216.983,366.984 219.5,372C 214.744,371.439 210.077,370.105 205.5,368C 202.167,367.667 198.833,367.333 195.5,367C 198.5,366.667 201.5,366.333 204.5,366C 206.464,364.549 207.797,362.716 208.5,360.5 Z M 234.5,361.5 C 235.209,360.596 236.209,360.263 237.5,360.5C 241.377,362.873 245.377,365.039 249.5,367C 247.649,367.837 245.816,368.671 244,369.5C 241.253,366.246 238.086,363.58 234.5,361.5 Z M 188.5,361.5 C 189.906,361.973 190.573,362.973 190.5,364.5C 188.952,364.179 188.285,363.179 188.5,361.5 Z M 190.5,371.5 C 192.435,370.291 194.435,370.458 196.5,372C 194.402,372.678 192.402,372.511 190.5,371.5 Z M 253.5,371.5 C 255.968,375.307 259.302,377.974 263.5,379.5C 261.959,385.27 258.626,386.603 253.5,383.5C 252.352,381.851 251.019,380.351 249.5,379C 251.115,376.658 252.449,374.158 253.5,371.5 Z M 210.5,375.5 C 211.386,374.224 212.386,374.224 213.5,375.5C 212.575,376.562 211.575,376.562 210.5,375.5 Z M 239.5,374.5 C 241.682,375.3 243.349,376.8 244.5,379C 243.382,380.074 242.382,381.24 241.5,382.5C 238.36,380.978 235.027,380.145 231.5,380C 230.833,379.333 230.167,378.667 229.5,378C 233.218,377.627 236.551,376.461 239.5,374.5 Z M 281.5,377.5 C 284.012,378.216 284.012,379.216 281.5,380.5C 280.913,379.767 280.913,378.767 281.5,377.5 Z M 225.5,379.5 C 225.5,380.833 226.167,381.5 227.5,381.5C 229.034,383.369 231.034,384.702 233.5,385.5C 233.167,386.167 232.833,386.833 232.5,387.5C 227.886,388.114 225.219,390.781 224.5,395.5C 222.707,392.749 221.041,389.916 219.5,387C 221.178,384.086 223.178,381.586 225.5,379.5 Z M 210.5,382.5 C 211.364,383.688 212.364,384.855 213.5,386C 212.717,390.802 211.383,390.635 209.5,385.5C 209.685,384.416 210.018,383.416 210.5,382.5 Z M 286.5,382.5 C 288.527,382.338 290.527,382.505 292.5,383C 291.429,383.852 290.429,384.685 289.5,385.5C 288.5,385.5 287.5,385.5 286.5,385.5C 286.5,384.5 286.5,383.5 286.5,382.5 Z M 111.5,383.5 C 112.644,385.1 113.811,386.767 115,388.5C 116.434,394.516 118.267,400.349 120.5,406C 120.167,406.5 119.833,407 119.5,407.5C 117.295,406.129 115.628,404.296 114.5,402C 112.473,396.002 111.473,389.836 111.5,383.5 Z M 292.5,391.5 C 293.014,389.132 294.18,387.132 296,385.5C 297.122,388.872 295.955,390.872 292.5,391.5 Z M 263.5,387.5 C 266.239,388.431 268.239,390.264 269.5,393C 265.884,395.916 262.051,398.749 258,401.5C 257.826,398.706 258.66,396.206 260.5,394C 259.483,392.951 259.316,391.784 260,390.5C 261.145,389.364 262.312,388.364 263.5,387.5 Z M 179.5,388.5 C 181.199,388.34 182.866,388.506 184.5,389C 188.02,390.852 191.687,392.519 195.5,394C 198.833,394 202.167,394 205.5,394C 206.022,394.561 206.355,395.228 206.5,396C 204.233,400.139 200.9,401.306 196.5,399.5C 193.515,399.993 190.848,401.16 188.5,403C 187.167,403.667 185.833,403.667 184.5,403C 179.783,399.294 175.45,395.127 171.5,390.5C 174.306,389.832 176.972,389.166 179.5,388.5 Z M 241.5,389.5 C 248.35,389.896 248.85,391.23 243,393.5C 242.209,392.255 241.709,390.922 241.5,389.5 Z M 217.5,394.5 C 215.668,393.86 215.335,392.86 216.5,391.5C 217.386,392.325 217.719,393.325 217.5,394.5 Z M 173.5,399.5 C 171.956,399.297 170.622,398.63 169.5,397.5C 168.817,397.863 168.15,398.196 167.5,398.5C 168.193,395.162 169.86,394.662 172.5,397C 173.252,397.671 173.586,398.504 173.5,399.5 Z M 214.5,403.5 C 212.447,403.402 210.78,404.069 209.5,405.5C 208.833,405.5 208.167,405.5 207.5,405.5C 206.167,405.5 205.5,404.833 205.5,403.5C 207.787,402.381 209.621,400.715 211,398.5C 213.087,399.794 215.254,400.961 217.5,402C 216.756,403.039 215.756,403.539 214.5,403.5 Z M 248.5,401.5 C 248.5,402.833 247.833,403.5 246.5,403.5C 246.833,402.5 247.5,401.833 248.5,401.5 Z M 252.5,402.5 C 252.818,405.481 251.818,407.815 249.5,409.5C 249.182,406.519 250.182,404.185 252.5,402.5 Z M 89.5,417.5 C 86.8631,419.491 84.1964,421.491 81.5,423.5C 82.7287,424.281 84.062,424.781 85.5,425C 85.1667,425.333 84.8333,425.667 84.5,426C 79.1616,426.735 73.8283,427.068 68.5,427C 74.9745,422.569 81.9745,419.402 89.5,417.5 Z M 184.5,419.5 C 182.567,421.937 180.4,424.271 178,426.5C 177.383,427.449 177.549,428.282 178.5,429C 173.559,433.267 169.392,438.1 166,443.5C 167.35,431.962 173.516,423.962 184.5,419.5 Z M 133.5,427.5 C 132.545,429.746 131.878,432.079 131.5,434.5C 132.822,434.67 133.989,434.337 135,433.5C 136.752,430.328 138.752,427.328 141,424.5C 140.854,428.959 139.854,433.292 138,437.5C 134.179,440.743 130.179,443.743 126,446.5C 124.776,440.696 125.776,435.362 129,430.5C 130.4,429.252 131.9,428.252 133.5,427.5 Z M 211.5,426.5 C 212.5,426.5 213.5,426.5 214.5,426.5C 214.573,428.027 213.906,429.027 212.5,429.5C 212.443,428.391 212.11,427.391 211.5,426.5 Z"/></g>
<g><path style="opacity:0.424" fill="#6c6c6c" d="M 390.5,342.5 C 390.5,344.833 390.5,347.167 390.5,349.5C 389.209,349.737 388.209,349.404 387.5,348.5C 389.06,346.844 390.06,344.844 390.5,342.5 Z"/></g>
<g><path style="opacity:0.017" fill="#dddddd" d="M 266.5,343.5 C 268.167,344.833 269.833,344.833 271.5,343.5C 272.043,343.56 272.376,343.893 272.5,344.5C 270.257,345.474 267.924,345.808 265.5,345.5C 265.328,344.508 265.662,343.842 266.5,343.5 Z"/></g>
<g><path style="opacity:0.086" fill="#a9a9a9" d="M 278.5,344.5 C 279.906,344.973 280.573,345.973 280.5,347.5C 279.094,347.027 278.427,346.027 278.5,344.5 Z"/></g>
<g><path style="opacity:0.008" fill="#898989" d="M 445.5,353.5 C 444.5,354.167 443.5,354.833 442.5,355.5C 441.957,355.44 441.624,355.107 441.5,354.5C 442.689,353.571 444.022,353.238 445.5,353.5 Z"/></g>
<g><path style="opacity:0.051" fill="#a7a7a7" d="M 237.5,360.5 C 236.209,360.263 235.209,360.596 234.5,361.5C 233.249,360.528 233.582,359.861 235.5,359.5C 236.416,359.543 237.083,359.876 237.5,360.5 Z"/></g>
<g><path style="opacity:0.708" fill="#4a4a4a" d="M 458.5,358.5 C 461.187,358.336 463.854,358.503 466.5,359C 469.044,360.099 469.044,361.265 466.5,362.5C 464.929,361.691 463.262,361.357 461.5,361.5C 460.9,360.1 459.9,359.1 458.5,358.5 Z"/></g>
<g><path style="opacity:0.039" fill="#959595" d="M 431.5,374.5 C 430.391,374.557 429.391,374.89 428.5,375.5C 429.053,373.448 430.053,373.115 431.5,374.5 Z"/></g>
<g><path style="opacity:0.063" fill="#a8a8a8" d="M 109.5,376.5 C 108.167,376.5 107.5,377.167 107.5,378.5C 106.596,377.791 106.263,376.791 106.5,375.5C 107.791,375.263 108.791,375.596 109.5,376.5 Z"/></g>
<g><path style="opacity:0.004" fill="#b5b5b5" d="M 225.5,379.5 C 226.5,379.833 227.167,380.5 227.5,381.5C 226.167,381.5 225.5,380.833 225.5,379.5 Z"/></g>
<g><path style="opacity:0.031" fill="#aeaeae" d="M 344.5,381.5 C 343.833,381.5 343.167,381.5 342.5,381.5C 343.596,377.711 344.263,377.711 344.5,381.5 Z"/></g>
<g><path style="opacity:0.196" fill="#8a8a8a" d="M 286.5,382.5 C 286.5,383.5 286.5,384.5 286.5,385.5C 287.5,385.5 288.5,385.5 289.5,385.5C 288.07,386.537 286.403,387.204 284.5,387.5C 284.167,387.5 283.833,387.5 283.5,387.5C 284.767,385.961 285.767,384.294 286.5,382.5 Z"/></g>
<g><path style="opacity:0.013" fill="#f6f6f6" d="M 233.5,385.5 C 236.186,386.988 235.853,387.655 232.5,387.5C 232.833,386.833 233.167,386.167 233.5,385.5 Z"/></g>
<g><path style="opacity:0.016" fill="#a5a5a5" d="M 363.5,385.5 C 364.525,385.897 364.692,386.563 364,387.5C 362.179,388.795 361.345,388.795 361.5,387.5C 362.5,387.167 363.167,386.5 363.5,385.5 Z"/></g>
<g><path style="opacity:0.227" fill="#909090" d="M 384.5,395.5 C 383.662,395.842 383.328,396.508 383.5,397.5C 382.224,396.614 382.224,395.614 383.5,394.5C 384.107,394.624 384.44,394.957 384.5,395.5 Z"/></g>
<g><path style="opacity:0.553" fill="#5e5e5e" d="M 54.5,404.5 C 52.1432,404.337 49.8098,404.503 47.5,405C 49.0581,405.21 50.3915,405.71 51.5,406.5C 48.2065,406.741 45.2065,405.908 42.5,404C 46.6888,403.188 50.6888,403.355 54.5,404.5 Z"/></g>
<g><path style="opacity:0.137" fill="#9f9f9f" d="M 214.5,403.5 C 213.22,404.931 211.553,405.598 209.5,405.5C 210.78,404.069 212.447,403.402 214.5,403.5 Z"/></g>
<g><path style="opacity:0.02" fill="#d0d0d0" d="M 205.5,403.5 C 205.5,404.833 206.167,405.5 207.5,405.5C 206.791,406.404 205.791,406.737 204.5,406.5C 204.263,405.209 204.596,404.209 205.5,403.5 Z"/></g>
<g><path style="opacity:0.245" fill="#9c9c9c" d="M 39.5,405.5 C 41.6976,405.875 43.6976,406.542 45.5,407.5C 42.9899,407.946 40.9899,407.28 39.5,405.5 Z"/></g>
<g><path style="opacity:0.004" fill="#e4e4e4" d="M 311.5,406.5 C 311.539,407.756 311.039,408.756 310,409.5C 309.415,408.002 309.915,407.002 311.5,406.5 Z"/></g>
<g><path style="opacity:0.145" fill="#9a9a9a" d="M 342.5,413.5 C 342.663,415.857 342.497,418.19 342,420.5C 341.487,419.473 340.987,418.473 340.5,417.5C 341.167,416.167 341.833,414.833 342.5,413.5 Z"/></g>
<g><path style="opacity:0.005" fill="#e7e7e7" d="M 367.5,418.5 C 368.167,418.833 368.833,419.167 369.5,419.5C 368.012,422.186 367.345,421.853 367.5,418.5 Z"/></g>
<g><path style="opacity:0.829" fill="#565656" d="M 330.5,417.5 C 332.138,418.705 332.471,420.038 331.5,421.5C 330.335,423.416 328.668,424.249 326.5,424C 328.957,422.488 328.957,421.154 326.5,420C 327.984,419.338 329.317,418.504 330.5,417.5 Z"/></g>
<g><path style="opacity:0.02" fill="#a4a4a4" d="M 221.5,422.5 C 221.833,422.5 222.167,422.5 222.5,422.5C 222.573,424.027 221.906,425.027 220.5,425.5C 220.557,424.391 220.89,423.391 221.5,422.5 Z"/></g>
<g><path style="opacity:0.004" fill="#2d2d2d" d="M 211.5,426.5 C 212.11,427.391 212.443,428.391 212.5,429.5C 208.995,429.306 208.662,428.306 211.5,426.5 Z"/></g>
<g><path style="opacity:0.184" fill="#929292" d="M 336.5,426.5 C 336.56,425.957 336.893,425.624 337.5,425.5C 338.84,429.097 338.507,432.43 336.5,435.5C 336.208,433.043 336.208,430.376 336.5,427.5C 337.833,427.167 337.833,426.833 336.5,426.5 Z"/></g>
<g><path style="opacity:0.086" fill="#9d9d9d" d="M 58.5,431.5 C 59.8333,431.833 61.1667,432.167 62.5,432.5C 60.8716,433.853 59.5383,433.519 58.5,431.5 Z"/></g>
<g><path style="opacity:0.016" fill="#a8a8a8" d="M 234.5,431.5 C 235.167,431.5 235.833,431.5 236.5,431.5C 235.828,432.267 234.995,432.934 234,433.5C 233.308,432.563 233.475,431.897 234.5,431.5 Z"/></g>
<g><path style="opacity:0.663" fill="#252525" d="M 218.5,414.5 C 218.5,416.5 218.5,418.5 218.5,420.5C 218.833,421.833 219.167,421.833 219.5,420.5C 219.833,420.5 220.167,420.5 220.5,420.5C 220.328,421.492 220.662,422.158 221.5,422.5C 220.89,423.391 220.557,424.391 220.5,425.5C 218.577,429.668 215.91,433.335 212.5,436.5C 204.167,444.5 195.833,452.5 187.5,460.5C 186.348,457.894 186.182,455.227 187,452.5C 189.499,444.488 192.666,436.821 196.5,429.5C 197.5,430.167 198.5,430.833 199.5,431.5C 197.952,435.598 196.119,439.598 194,443.5C 193.009,445.447 192.675,447.447 193,449.5C 199.912,443.15 206.412,436.483 212.5,429.5C 213.906,429.027 214.573,428.027 214.5,426.5C 213.5,426.5 212.5,426.5 211.5,426.5C 213.85,422.46 216.184,418.46 218.5,414.5 Z"/></g>
<g><path style="opacity:0.11" fill="#a9a9a9" d="M 342.5,438.5 C 341.833,437.833 341.167,437.167 340.5,436.5C 340.369,435.624 340.702,434.957 341.5,434.5C 342.429,435.689 342.762,437.022 342.5,438.5 Z"/></g>
</svg>
