<?xml version="1.0" encoding="UTF-8"?>
<!DOCTYPE svg PUBLIC "-//W3C//DTD SVG 1.1//EN" "http://www.w3.org/Graphics/SVG/1.1/DTD/svg11.dtd">
<svg xmlns="http://www.w3.org/2000/svg" version="1.1" width="853px" height="292px" style="shape-rendering:geometricPrecision; text-rendering:geometricPrecision; image-rendering:optimizeQuality; fill-rule:evenodd; clip-rule:evenodd" xmlns:xlink="http://www.w3.org/1999/xlink">
<g><path style="opacity:0.672" fill="#020202" d="M 582.5,160.5 C 582.5,159.5 582.5,158.5 582.5,157.5C 588.737,152.77 594.57,147.437 600,141.5C 600.563,140.275 600.23,139.275 599,138.5C 586.412,147.21 573.912,156.044 561.5,165C 560.262,165.69 560.262,166.19 561.5,166.5C 561.389,168.648 562.056,168.981 563.5,167.5C 564.522,167.855 565.189,168.522 565.5,169.5C 564.29,169.932 563.29,170.599 562.5,171.5C 561.5,171.833 560.833,172.5 560.5,173.5C 559.761,173.369 559.094,173.536 558.5,174C 563.311,176.985 567.644,180.485 571.5,184.5C 570.29,184.932 569.29,185.599 568.5,186.5C 567.833,186.5 567.167,186.5 566.5,186.5C 565.599,184.273 563.933,183.273 561.5,183.5C 560.5,182.167 559.5,182.167 558.5,183.5C 556.956,183.297 555.622,182.63 554.5,181.5C 554.167,181.833 553.833,182.167 553.5,182.5C 555.219,184.352 557.219,185.686 559.5,186.5C 559.973,187.906 560.973,188.573 562.5,188.5C 574.134,202.466 587.134,215.133 601.5,226.5C 601.833,226.333 602.167,226.167 602.5,226C 601.418,224.67 600.751,223.17 600.5,221.5C 601.338,221.158 601.672,220.492 601.5,219.5C 606.057,223.946 609.057,229.279 610.5,235.5C 607.984,235.245 605.65,234.411 603.5,233C 591.191,223.689 579.857,213.355 569.5,202C 566.431,200.154 563.098,199.154 559.5,199C 553.175,198.5 546.842,198.334 540.5,198.5C 540.665,201.518 540.498,204.518 540,207.5C 539.075,208.047 538.242,208.713 537.5,209.5C 539.396,210.466 541.396,210.799 543.5,210.5C 544.477,202.342 548.811,199.842 556.5,203C 558.46,205.106 560.294,207.273 562,209.5C 574.82,206.738 579.154,211.738 575,224.5C 574.215,226.286 573.049,227.786 571.5,229C 574.382,234.403 573.882,239.569 570,244.5C 565.867,247.128 561.701,247.128 557.5,244.5C 550.244,251.553 543.91,250.72 538.5,242C 539.451,241.282 539.617,240.449 539,239.5C 534.99,238.157 531.49,235.991 528.5,233C 528.032,227.485 530.365,223.818 535.5,222C 532.543,219.307 529.21,217.14 525.5,215.5C 525.914,218.003 525.248,220.503 523.5,223C 527.807,228.088 527.474,232.755 522.5,237C 519.637,238.399 516.637,239.399 513.5,240C 512.692,242.088 511.692,244.088 510.5,246C 506.458,247.457 502.458,247.957 498.5,247.5C 502.231,253.191 504.898,259.357 506.5,266C 506.18,267.653 505.18,268.653 503.5,269C 490.402,271.236 478.069,269.236 466.5,263C 463.592,260.431 461.092,257.598 459,254.5C 454.178,259.775 448.178,262.109 441,261.5C 437.41,261.528 433.91,261.028 430.5,260C 428.277,258.267 425.944,256.767 423.5,255.5C 420.773,257.777 417.607,259.111 414,259.5C 410.803,258.756 407.636,258.256 404.5,258C 399.09,264.884 392.09,269.551 383.5,272C 373.972,274.337 364.305,275.504 354.5,275.5C 357.058,264.48 361.725,254.48 368.5,245.5C 368.333,245.167 368.167,244.833 368,244.5C 363.15,247.373 358.817,246.706 355,242.5C 354.506,240.866 354.34,239.199 354.5,237.5C 346.964,238.101 341.964,234.934 339.5,228C 340.303,225.256 341.303,222.589 342.5,220C 339.161,213.061 335.161,212.894 330.5,219.5C 336.659,221.467 338.492,225.467 336,231.5C 333.592,233.956 330.759,235.789 327.5,237C 326.07,244.202 321.736,247.869 314.5,248C 312.04,246.542 309.873,244.709 308,242.5C 304.405,244.456 300.572,244.956 296.5,244C 292.773,241.278 290.773,237.278 290.5,232C 290.643,229.849 291.643,228.182 293.5,227C 287.354,220.202 287.021,213.202 292.5,206C 296.045,205.283 299.545,205.45 303,206.5C 304.706,204.273 306.54,202.106 308.5,200C 315.788,196.495 320.455,198.662 322.5,206.5C 324.307,207.799 325.973,207.632 327.5,206C 326.672,205.085 325.672,204.419 324.5,204C 324.062,200.927 324.729,197.927 326.5,195C 324.5,194.833 322.5,194.667 320.5,194.5C 312.499,194.793 304.499,195.96 296.5,198C 284.698,211.472 271.365,223.139 256.5,233C 255.207,233.49 253.873,233.657 252.5,233.5C 254.857,227.122 258.023,221.122 262,215.5C 266.167,210.667 270.333,205.833 274.5,201C 270.789,200.561 267.122,200.894 263.5,202C 253.963,211.868 244.797,222.035 236,232.5C 229.26,238.452 222.426,244.285 215.5,250C 213.926,250.699 212.593,250.365 211.5,249C 214.727,243.946 217.727,238.779 220.5,233.5C 221.848,232.473 222.348,231.14 222,229.5C 219.912,230.308 217.912,231.308 216,232.5C 214.149,232.509 212.315,231.676 210.5,230C 211.522,227.455 212.688,224.955 214,222.5C 219.84,217.992 225.673,213.492 231.5,209C 225.085,208.805 219.419,210.805 214.5,215C 211.667,217.833 208.833,220.667 206,223.5C 205.735,226.416 205.069,229.416 204,232.5C 200.995,237.009 196.828,239.676 191.5,240.5C 190.09,240.132 189.09,239.299 188.5,238C 189.525,235.929 190.358,233.762 191,231.5C 197.523,226.881 203.523,221.548 209,215.5C 209.591,214.517 209.257,213.85 208,213.5C 196.705,216.471 187.205,222.304 179.5,231C 180.554,232.388 180.72,233.888 180,235.5C 176.056,241.993 170.223,244.993 162.5,244.5C 164.485,235.679 169.818,229.846 178.5,227C 180.86,224.64 183.194,222.306 185.5,220C 172.27,221.964 159.604,225.964 147.5,232C 143.75,239.704 137.75,242.204 129.5,239.5C 129.445,229.55 134.612,226.216 145,229.5C 150.308,227.439 155.141,225.272 159.5,223C 157.286,221.833 154.62,221 151.5,220.5C 142.67,223.702 138.67,220.369 139.5,210.5C 142.841,209.995 146.174,209.828 149.5,210C 151.074,211.826 151.907,213.993 152,216.5C 159.653,219.351 167.486,219.851 175.5,218C 176.056,217.617 176.389,217.117 176.5,216.5C 174.488,217.014 172.488,217.18 170.5,217C 170.167,216.667 169.833,216.333 169.5,216C 170.765,214.663 171.265,213.163 171,211.5C 167.579,210.272 164.246,208.939 161,207.5C 160.682,205.939 159.849,204.772 158.5,204C 159.711,202.887 159.711,201.72 158.5,200.5C 158.977,199.522 159.643,198.689 160.5,198C 163.897,198.013 167.23,198.679 170.5,200C 172.002,202.574 173.002,205.407 173.5,208.5C 174.167,208.833 174.833,209.167 175.5,209.5C 178.551,206.445 181.884,203.779 185.5,201.5C 184.044,199.199 183.711,196.865 184.5,194.5C 188.522,193.72 192.522,194.054 196.5,195.5C 201.493,193.228 206.493,191.061 211.5,189C 205.584,188.193 199.75,188.359 194,189.5C 193.25,188.874 192.416,188.374 191.5,188C 181.882,187.389 172.382,186.223 163,184.5C 150.485,190.507 137.985,196.674 125.5,203C 118.409,205.697 111.242,208.197 104,210.5C 102.054,210.237 101.388,209.237 102,207.5C 113.577,196.642 126.743,189.475 141.5,186C 135.863,184.835 130.196,184.335 124.5,184.5C 106.874,186.592 89.207,188.259 71.5,189.5C 65.3022,188.853 59.1355,188.186 53,187.5C 50.9521,188.423 49.1188,187.923 47.5,186C 51.1909,183.055 54.6909,180.555 58,178.5C 58.414,178.957 58.914,179.291 59.5,179.5C 68.8179,175.717 78.4846,174.217 88.5,175C 96.7814,176.992 105.115,178.325 113.5,179C 103.017,173.593 93.0166,167.426 83.5,160.5C 82.1435,157.341 83.3102,156.008 87,156.5C 100.471,159.486 111.971,165.986 121.5,176C 124.554,178.194 127.888,179.861 131.5,181C 144.185,181.224 156.852,181.724 169.5,182.5C 170.726,182.48 171.726,182.147 172.5,181.5C 173.391,180.89 174.391,180.557 175.5,180.5C 178.167,180.167 178.167,179.833 175.5,179.5C 175.586,178.504 175.252,177.671 174.5,177C 169.271,171.936 163.604,167.436 157.5,163.5C 158.167,162.833 158.833,162.167 159.5,161.5C 162.447,162.973 165.447,164.473 168.5,166C 175.391,173.568 183.391,179.568 192.5,184C 198.62,185.005 204.787,185.505 211,185.5C 221.519,185.065 232.019,184.398 242.5,183.5C 243.833,184.5 243.833,185.5 242.5,186.5C 235.606,187.633 228.94,189.466 222.5,192C 224.087,192.862 225.754,193.529 227.5,194C 227.958,196.398 229.292,198.064 231.5,199C 235.7,199.876 239.867,200.709 244,201.5C 248.439,199.788 248.439,198.454 244,197.5C 243.383,196.551 243.549,195.718 244.5,195C 249.558,193.08 254.225,190.58 258.5,187.5C 258.389,188.117 258.056,188.617 257.5,189C 258.416,189.278 259.082,189.778 259.5,190.5C 259.5,190.833 259.5,191.167 259.5,191.5C 274.356,190.721 287.356,185.554 298.5,176C 300.049,174.786 301.215,173.286 302,171.5C 302.333,171.833 302.667,172.167 303,172.5C 303.772,171.151 304.939,170.318 306.5,170C 306.272,169.601 305.938,169.435 305.5,169.5C 304.167,168.833 302.833,168.167 301.5,167.5C 301.611,166.883 301.944,166.383 302.5,166C 292.193,165.633 282.027,164.466 272,162.5C 266.208,163.906 260.375,165.239 254.5,166.5C 255.833,165.5 255.833,164.5 254.5,163.5C 255.609,162.71 256.942,162.21 258.5,162C 255.183,161.502 251.85,161.335 248.5,161.5C 246.972,160.691 245.306,160.024 243.5,159.5C 243.158,158.662 242.492,158.328 241.5,158.5C 241.733,156.938 242.4,155.605 243.5,154.5C 245.527,154.662 247.527,154.495 249.5,154C 238.14,150.174 228.807,143.674 221.5,134.5C 220.921,131.669 219.588,129.336 217.5,127.5C 215.856,121.588 214.523,115.588 213.5,109.5C 213.179,106.226 214.513,104.726 217.5,105C 222.041,111.245 226.208,117.745 230,124.5C 239.137,132.636 247.97,141.136 256.5,150C 266.367,156.1 277.034,159.434 288.5,160C 273.32,152.551 261.653,141.551 253.5,127C 254.009,125.831 254.842,124.998 256,124.5C 268.153,130.992 279.487,138.659 290,147.5C 289.288,144.053 287.955,140.719 286,137.5C 277.526,134.799 276.359,130.299 282.5,124C 282.355,123.228 282.022,122.561 281.5,122C 278.581,121.448 275.914,122.115 273.5,124C 267.924,125.472 263.091,124.305 259,120.5C 257.464,114.865 259.631,111.865 265.5,111.5C 270.373,112.528 274.706,114.695 278.5,118C 283.939,118.529 289.273,119.196 294.5,120C 285.953,115.81 277.787,110.977 270,105.5C 264.455,108.686 259.788,107.686 256,102.5C 254.793,97.2262 256.793,94.2262 262,93.5C 264.544,93.3836 266.711,94.217 268.5,96C 271.029,101.363 275.029,105.196 280.5,107.5C 280.514,98.661 284.514,96.161 292.5,100C 294.504,102.841 295.004,106.007 294,109.5C 292.933,110.191 291.766,110.691 290.5,111C 296.222,115.529 302.555,119.029 309.5,121.5C 311.009,119.576 313.009,118.409 315.5,118C 312.018,114.188 308.185,110.688 304,107.5C 301.848,99.1454 305.015,95.9787 313.5,98C 318.958,103.455 318.625,107.788 312.5,111C 316.653,116.055 321.986,119.055 328.5,120C 331.572,122.809 333.905,126.142 335.5,130C 338.742,131.639 342.076,132.639 345.5,133C 341.099,128.259 338.265,123.093 337,117.5C 331.308,114.189 330.142,109.689 333.5,104C 340.755,100.458 345.421,102.458 347.5,110C 347.375,111.627 346.875,113.127 346,114.5C 343.82,115.346 342.32,116.846 341.5,119C 344.365,129.375 351.032,135.209 361.5,136.5C 362.298,131.94 363.798,127.606 366,123.5C 369.412,120.877 372.912,118.377 376.5,116C 373.589,110.938 371.255,105.605 369.5,100C 370.738,97.3816 370.738,94.715 369.5,92C 371.199,88.0041 372.199,83.8375 372.5,79.5C 379.45,77.8687 386.117,78.7021 392.5,82C 395.328,84.2481 398.328,86.2481 401.5,88C 404.07,90.0673 406.07,92.5673 407.5,95.5C 411.748,96.6759 415.915,98.0092 420,99.5C 421.016,98.3659 421.683,98.6992 422,100.5C 423.858,91.8931 429.191,88.5598 438,90.5C 444.305,90.3229 450.471,91.1563 456.5,93C 459.333,94.5 461.5,96.6667 463,99.5C 464.984,97.3866 467.484,96.2199 470.5,96C 479.905,83.7991 492.239,77.1324 507.5,76C 508.445,82.0065 510.112,87.8399 512.5,93.5C 511.065,102.637 507.065,110.47 500.5,117C 507.134,123.083 511.634,130.583 514,139.5C 520.032,136.105 523.532,130.938 524.5,124C 518.898,121.297 517.398,117.131 520,111.5C 523.453,108.231 527.286,107.731 531.5,110C 534.702,115.203 533.869,119.703 529,123.5C 527.226,129.553 524.059,134.72 519.5,139C 522.784,138.243 526.117,137.243 529.5,136C 531.5,133 533.5,130 535.5,127C 539.281,124.775 543.281,123.109 547.5,122C 552.348,119.207 552.515,116.374 548,113.5C 547.516,104.994 551.349,102.161 559.5,105C 561.478,107.497 561.978,110.331 561,113.5C 557.019,116.313 553.519,119.647 550.5,123.5C 552.709,124.063 554.209,125.396 555,127.5C 561.371,125.066 567.205,121.732 572.5,117.5C 567.27,110.257 569.103,105.923 578,104.5C 583.278,106.215 584.445,109.381 581.5,114C 587.898,112.286 592.565,108.286 595.5,102C 598.638,99.2795 601.971,98.9461 605.5,101C 609.545,108.305 607.378,112.472 599,113.5C 597.105,113.385 595.438,112.718 594,111.5C 586.536,116.553 578.702,121.053 570.5,125C 574.442,125.315 578.276,124.815 582,123.5C 582.414,123.957 582.914,124.291 583.5,124.5C 587.167,122.333 590.833,120.167 594.5,118C 602.342,115.972 605.509,118.805 604,126.5C 597.539,131.767 591.039,131.767 584.5,126.5C 580.716,128.771 580.883,131.104 585,133.5C 585.667,135.167 585.667,136.833 585,138.5C 582.154,140.257 579.488,142.257 577,144.5C 576.009,146.447 575.675,148.447 576,150.5C 585.312,143.184 595.145,136.684 605.5,131C 607.319,130.217 608.652,130.717 609.5,132.5C 603.174,144.491 594.174,153.824 582.5,160.5 Z M 498.5,92.5 C 498.724,90.2133 499.391,88.0466 500.5,86C 500.167,85.5 499.833,85 499.5,84.5C 496.548,88.7944 494.048,93.4611 492,98.5C 491.502,96.4731 491.669,94.4731 492.5,92.5C 492.267,91.0683 491.6,90.5683 490.5,91C 489.418,95.1557 488.252,99.3223 487,103.5C 483.83,100.181 479.997,97.848 475.5,96.5C 477.881,92.4531 481.214,89.4531 485.5,87.5C 491.116,82.4629 497.616,80.1296 505,80.5C 510.429,94.0391 507.262,105.372 495.5,114.5C 494.338,111.506 492.671,108.84 490.5,106.5C 492,104.167 493.5,101.833 495,99.5C 498.698,96.6286 502.198,93.6286 505.5,90.5C 505.167,89.8333 504.833,89.1667 504.5,88.5C 502.21,89.4671 500.21,90.8004 498.5,92.5 Z M 376.5,82.5 C 379.187,82.3359 381.854,82.5026 384.5,83C 390.118,86.3877 395.618,89.8877 401,93.5C 401.309,94.7659 401.809,95.9326 402.5,97C 400.246,98.3767 398.08,99.8767 396,101.5C 394.836,98.8651 393.669,96.1984 392.5,93.5C 391.568,96.1727 391.402,98.8394 392,101.5C 390.488,98.1434 387.988,96.1434 384.5,95.5C 384.351,96.552 384.517,97.552 385,98.5C 386.685,100.017 388.185,101.684 389.5,103.5C 389.291,104.086 388.957,104.586 388.5,105C 385.518,105.498 382.518,105.665 379.5,105.5C 379.5,106.5 379.5,107.5 379.5,108.5C 382.572,108.183 385.572,108.516 388.5,109.5C 387.442,112.848 387.275,116.181 388,119.5C 377.987,114.992 373.154,107.159 373.5,96C 373.787,91.3142 374.787,86.8142 376.5,82.5 Z M 431.5,93.5 C 440.89,92.6789 449.724,94.3456 458,98.5C 458.875,99.8732 459.375,101.373 459.5,103C 458.333,108.167 457.167,113.333 456,118.5C 454.155,121.184 452.988,120.851 452.5,117.5C 453.649,114.478 453.649,111.478 452.5,108.5C 451.833,109.5 451.167,110.5 450.5,111.5C 446.572,109.245 444.238,105.912 443.5,101.5C 442.316,103.046 441.316,104.713 440.5,106.5C 438.556,105.811 436.556,105.311 434.5,105C 432.75,101.826 431.417,102.159 430.5,106C 428.888,106.72 427.388,106.554 426,105.5C 424.36,99.7862 426.193,95.7862 431.5,93.5 Z M 406.5,100.5 C 413.056,99.8478 418.39,102.014 422.5,107C 418.283,107.733 414.949,109.233 412.5,111.5C 411.536,108.917 410.202,108.417 408.5,110C 410.055,113.784 409.555,117.284 407,120.5C 406.252,118.668 405.252,117.001 404,115.5C 403.308,116.025 402.808,116.692 402.5,117.5C 403.731,124.041 406.398,129.875 410.5,135C 410,135.5 409.5,136 409,136.5C 400.138,131.469 393.972,124.135 390.5,114.5C 393.708,107.285 399.042,102.618 406.5,100.5 Z M 466.5,100.5 C 478.262,100.089 486.595,105.255 491.5,116C 489.53,118.742 487.03,120.908 484,122.5C 481.402,121.536 480.902,119.87 482.5,117.5C 482.192,116.692 481.692,116.025 481,115.5C 480,116.5 479,117.5 478,118.5C 476.745,117.789 475.579,116.956 474.5,116C 475.337,114.989 475.67,113.822 475.5,112.5C 473.263,113.449 470.929,114.116 468.5,114.5C 468.785,112.712 468.452,111.045 467.5,109.5C 466.01,111.126 464.51,112.792 463,114.5C 462.667,114.167 462.333,113.833 462,113.5C 461.577,114.956 460.744,115.456 459.5,115C 460.983,109.696 463.316,104.862 466.5,100.5 Z M 433.5,108.5 C 444.724,108.221 449.89,113.554 449,124.5C 447.457,130.587 445.624,136.587 443.5,142.5C 440.854,143.551 438.187,144.051 435.5,144C 434.104,140.606 432.437,137.44 430.5,134.5C 430.053,137.888 430.719,141.221 432.5,144.5C 430.168,146.668 427.501,148.335 424.5,149.5C 421.897,147.725 419.73,145.392 418,142.5C 405.117,122.608 410.284,111.275 433.5,108.5 Z M 218.5,113.5 C 221.564,117.081 224.064,121.081 226,125.5C 234.755,133.559 242.755,141.893 250,150.5C 242.362,147.182 235.362,142.849 229,137.5C 223.029,130.559 219.529,122.559 218.5,113.5 Z M 464.5,117.5 C 478.459,120.126 486.792,128.459 489.5,142.5C 489.124,144.383 488.124,145.883 486.5,147C 479.23,150.592 471.896,154.092 464.5,157.5C 462.588,155.343 460.921,153.009 459.5,150.5C 465.14,141.781 464.14,140.781 456.5,147.5C 453.95,146.058 451.284,144.892 448.5,144C 448.886,135.214 452.219,127.547 458.5,121C 460.432,119.541 462.432,118.375 464.5,117.5 Z M 378.5,119.5 C 384.896,120.865 390.23,124.032 394.5,129C 389.718,132.19 385.218,132.023 381,128.5C 380.5,128.833 380,129.167 379.5,129.5C 380.752,131.001 381.752,132.668 382.5,134.5C 380.812,138.258 378.145,139.591 374.5,138.5C 373.692,138.808 373.025,139.308 372.5,140C 375.95,142.158 376.283,144.658 373.5,147.5C 365.909,145.16 363.409,140.16 366,132.5C 367,130.5 368,128.5 369,126.5C 372.145,124.024 375.312,121.69 378.5,119.5 Z M 495.5,120.5 C 498.81,120.461 501.476,121.794 503.5,124.5C 506.537,129.736 508.87,135.236 510.5,141C 509.418,144.405 508.584,147.905 508,151.5C 506.18,154.203 503.68,155.036 500.5,154C 498.695,151.597 496.362,149.93 493.5,149C 495.547,147.927 497.547,146.761 499.5,145.5C 497.604,144.534 495.604,144.201 493.5,144.5C 493.708,142.08 493.374,139.747 492.5,137.5C 493.748,135.541 495.415,134.041 497.5,133C 495.519,131.369 493.519,131.535 491.5,133.5C 489.914,131.33 488.58,128.996 487.5,126.5C 489.517,123.506 492.184,121.506 495.5,120.5 Z M 287.5,123.5 C 288.274,122.853 289.274,122.52 290.5,122.5C 297.154,124.064 303.82,125.564 310.5,127C 304.859,128.072 299.193,128.405 293.5,128C 291.34,126.668 289.34,125.168 287.5,123.5 Z M 575.5,127.5 C 576.645,128.793 576.311,129.959 574.5,131C 572.557,132.555 570.39,133.722 568,134.5C 564.085,133.95 560.252,133.117 556.5,132C 562.965,130.487 569.298,128.987 575.5,127.5 Z M 308.5,129.5 C 312.896,130.707 317.23,132.207 321.5,134C 325.225,134.76 328.892,134.593 332.5,133.5C 334.661,134.035 336.661,134.868 338.5,136C 331.973,136.212 325.306,136.712 318.5,137.5C 314.351,137.092 310.351,136.092 306.5,134.5C 302.73,135.265 299.396,136.932 296.5,139.5C 293.297,137.471 292.964,135.138 295.5,132.5C 299.939,131.4 304.272,130.4 308.5,129.5 Z M 261.5,132.5 C 265.845,134.007 269.845,136.173 273.5,139C 283.389,146.764 293.389,154.264 303.5,161.5C 285.646,157.253 271.646,147.586 261.5,132.5 Z M 392.5,133.5 C 396.813,133.548 400.813,134.715 404.5,137C 410.286,142.112 415.952,147.279 421.5,152.5C 420.788,154.046 419.622,155.046 418,155.5C 414.439,153.97 410.939,152.303 407.5,150.5C 406.692,150.808 406.025,151.308 405.5,152C 409.22,154.279 413.054,156.446 417,158.5C 417.33,161.519 415.997,163.519 413,164.5C 404.893,162.975 396.727,161.808 388.5,161C 377.291,159.278 374.458,153.445 380,143.5C 383.487,139.165 387.654,135.832 392.5,133.5 Z M 551.5,135.5 C 557.625,135.643 563.625,136.476 569.5,138C 570.866,140.382 570.533,142.548 568.5,144.5C 565.51,142.423 562.344,140.756 559,139.5C 555.446,139.961 552.28,141.294 549.5,143.5C 541.917,142.1 534.25,141.267 526.5,141C 532.753,139.796 539.086,139.129 545.5,139C 547.727,138.059 549.727,136.892 551.5,135.5 Z M 344.5,139.5 C 342.29,140.351 340.29,141.684 338.5,143.5C 334.892,142.407 331.225,142.24 327.5,143C 322.165,150.693 324.165,155.527 333.5,157.5C 339.784,156.608 342.284,152.941 341,146.5C 346.899,140.661 353.733,139.161 361.5,142C 364.108,145.031 363.108,146.365 358.5,146C 356.714,146.785 355.214,147.951 354,149.5C 351.971,154.661 350.471,159.994 349.5,165.5C 348.707,165.931 347.873,166.265 347,166.5C 338.173,165.745 329.34,164.912 320.5,164C 315.833,160.667 311.167,157.333 306.5,154C 303.882,151.894 301.882,149.394 300.5,146.5C 307.638,150.104 312.971,148.271 316.5,141C 325.834,139.423 335.167,138.923 344.5,139.5 Z M 562.5,152.5 C 562.67,153.822 562.337,154.989 561.5,156C 556.167,160 550.833,164 545.5,168C 538.017,168.999 530.517,169.832 523,170.5C 521.893,170.415 520.893,170.081 520,169.5C 520.202,162.9 517.535,157.9 512,154.5C 511.57,151.808 511.737,149.141 512.5,146.5C 517.222,146.861 521.556,148.361 525.5,151C 525.545,153.636 525.712,156.47 526,159.5C 530.918,162.384 535.585,162.051 540,158.5C 542.924,151.67 540.757,148.003 533.5,147.5C 531.44,147.572 529.44,147.905 527.5,148.5C 525.664,147.081 523.664,145.914 521.5,145C 530.979,143.94 540.312,144.607 549.5,147C 552.239,152.705 556.573,154.538 562.5,152.5 Z M 449.5,148.5 C 450.289,148.783 450.956,149.283 451.5,150C 450.184,150.528 449.517,150.028 449.5,148.5 Z M 296.5,149.5 C 298.587,150.585 299.92,152.251 300.5,154.5C 298.413,153.415 297.08,151.749 296.5,149.5 Z M 376.5,160.5 C 372.05,162.158 367.383,163.491 362.5,164.5C 371.484,165.135 380.484,165.302 389.5,165C 382.74,165.208 377.74,168.208 374.5,174C 372.1,174.186 369.766,174.686 367.5,175.5C 369.624,176.149 371.624,176.983 373.5,178C 373.284,179.966 372.618,182.133 371.5,184.5C 360.127,188.983 354.127,185.15 353.5,173C 353.782,165.995 354.949,159.161 357,152.5C 358.333,150.167 360.333,149.167 363,149.5C 366.592,149.73 369.925,150.73 373,152.5C 373.533,155.505 374.7,158.172 376.5,160.5 Z M 431.5,150.5 C 433.355,150.272 434.188,150.939 434,152.5C 431.366,153.692 430.532,153.026 431.5,150.5 Z M 442.5,150.5 C 446.864,150.665 447.364,151.998 444,154.5C 441.988,153.434 441.488,152.1 442.5,150.5 Z M 487.5,151.5 C 498.446,154.725 501.946,161.725 498,172.5C 497.27,178.008 494.27,181.341 489,182.5C 481.833,180.667 474.667,178.833 467.5,177C 466.572,176.612 465.905,175.945 465.5,175C 466.148,173.56 466.481,172.06 466.5,170.5C 473.905,170.198 473.738,168.865 466,166.5C 464.959,163.364 465.793,160.864 468.5,159C 475.041,156.77 481.374,154.27 487.5,151.5 Z M 452.5,152.5 C 455.957,152.667 456.29,153.667 453.5,155.5C 452.614,154.675 452.281,153.675 452.5,152.5 Z M 428.5,156.5 C 428.167,155.167 427.833,155.167 427.5,156.5C 426.287,155.503 426.454,154.503 428,153.5C 429.546,154.503 429.713,155.503 428.5,156.5 Z M 436.5,154.5 C 441.796,155.688 441.796,156.522 436.5,157C 435.402,156.23 435.402,155.397 436.5,154.5 Z M 447.5,155.5 C 449.728,156.322 450.395,157.655 449.5,159.5C 447.204,158.632 446.537,157.298 447.5,155.5 Z M 241.5,158.5 C 242.492,158.328 243.158,158.662 243.5,159.5C 239.625,159.915 235.958,159.415 232.5,158C 235.475,157.956 238.475,158.123 241.5,158.5 Z M 457.5,157.5 C 459.807,158.405 459.807,159.738 457.5,161.5C 456.708,160.3 456.708,158.967 457.5,157.5 Z M 506.5,157.5 C 515.462,159.811 518.296,165.477 515,174.5C 513.483,186.179 508.316,188.179 499.5,180.5C 500.654,177.31 502.988,175.644 506.5,175.5C 505.68,173.889 504.346,173.222 502.5,173.5C 502.199,169.381 504.199,167.381 508.5,167.5C 507.345,166.05 505.845,165.05 504,164.5C 503.505,162.527 503.338,160.527 503.5,158.5C 504.791,158.737 505.791,158.404 506.5,157.5 Z M 423.5,158.5 C 424.289,158.783 424.956,159.283 425.5,160C 424.184,160.528 423.517,160.028 423.5,158.5 Z M 431.5,158.5 C 435.31,159.754 435.31,160.754 431.5,161.5C 431.5,160.5 431.5,159.5 431.5,158.5 Z M 157.5,163.5 C 163.604,167.436 169.271,171.936 174.5,177C 175.252,177.671 175.586,178.504 175.5,179.5C 166.24,174.616 157.74,168.616 150,161.5C 149.333,160.833 149.333,160.167 150,159.5C 152.448,160.973 154.948,162.307 157.5,163.5 Z M 441.5,159.5 C 444.114,159.277 445.781,160.444 446.5,163C 443.297,164.678 441.63,163.511 441.5,159.5 Z M 92.5,161.5 C 96.3728,162.434 100.039,163.934 103.5,166C 104.252,166.671 104.586,167.504 104.5,168.5C 100.241,167.347 96.2413,165.013 92.5,161.5 Z M 248.5,161.5 C 251.85,161.335 255.183,161.502 258.5,162C 256.942,162.21 255.609,162.71 254.5,163.5C 248.375,166.227 242.041,168.394 235.5,170C 224.167,170.667 212.833,170.667 201.5,170C 216.637,165.966 232.303,163.133 248.5,161.5 Z M 301.5,167.5 C 296.421,167.978 291.588,169.311 287,171.5C 286.667,171.167 286.333,170.833 286,170.5C 280.683,172.949 275.517,175.782 270.5,179C 266.84,179.547 263.173,180.047 259.5,180.5C 257.366,180.485 255.366,179.985 253.5,179C 251.138,176.308 248.804,173.641 246.5,171C 249.359,169.74 252.026,168.24 254.5,166.5C 260.375,165.239 266.208,163.906 272,162.5C 282.027,164.466 292.193,165.633 302.5,166C 301.944,166.383 301.611,166.883 301.5,167.5 Z M 427.5,162.5 C 430.873,163.932 431.207,165.932 428.5,168.5C 426.454,166.719 426.12,164.719 427.5,162.5 Z M 460.5,162.5 C 461.797,163.849 461.63,165.182 460,166.5C 459.421,165.072 459.588,163.738 460.5,162.5 Z M 437.5,163.5 C 440.753,164.817 441.587,166.817 440,169.5C 437.272,168.033 436.439,166.033 437.5,163.5 Z M 447.5,166.5 C 450.569,166.963 451.069,168.296 449,170.5C 447.812,169.437 447.312,168.103 447.5,166.5 Z M 410.5,193.5 C 405.348,197.773 399.515,201.106 393,203.5C 380.88,199.609 375.547,191.276 377,178.5C 378.918,171.78 383.418,168.28 390.5,168C 398.5,167.333 406.5,167.333 414.5,168C 415.167,170.333 415.833,172.667 416.5,175C 412.323,177.059 407.99,178.726 403.5,180C 401.156,180.837 399.156,182.171 397.5,184C 403.722,183.654 409.722,182.154 415.5,179.5C 418.096,181.123 419.263,183.456 419,186.5C 416.452,189.189 413.618,191.523 410.5,193.5 Z M 104.5,168.5 C 107.166,168.066 108.333,169.066 108,171.5C 106.855,170.364 105.688,169.364 104.5,168.5 Z M 325.5,169.5 C 326.946,168.387 328.613,168.22 330.5,169C 329.667,169.833 328.833,170.667 328,171.5C 327.292,170.619 326.458,169.953 325.5,169.5 Z M 342.5,168.5 C 344.801,169.06 347.134,169.56 349.5,170C 348.333,170.167 347.167,170.333 346,170.5C 344.319,170.392 343.152,169.725 342.5,168.5 Z M 422.5,168.5 C 425.119,169.403 425.786,171.069 424.5,173.5C 423.438,171.978 422.771,170.312 422.5,168.5 Z M 433.5,168.5 C 434.812,169.145 435.812,170.145 436.5,171.5C 434.833,172.5 433.5,173.833 432.5,175.5C 431.28,175.113 430.613,174.28 430.5,173C 431.315,171.357 432.315,169.857 433.5,168.5 Z M 305.5,169.5 C 305.938,169.435 306.272,169.601 306.5,170C 304.939,170.318 303.772,171.151 303,172.5C 302.667,172.167 302.333,171.833 302,171.5C 301.215,173.286 300.049,174.786 298.5,176C 287.356,185.554 274.356,190.721 259.5,191.5C 259.5,191.167 259.5,190.833 259.5,190.5C 263.011,188.244 266.678,186.244 270.5,184.5C 279.611,176.51 291.277,171.51 305.5,169.5 Z M 334.5,170.5 C 340.292,170.779 342.292,173.612 340.5,179C 334.491,179.144 332.491,176.311 334.5,170.5 Z M 443.5,170.5 C 446.14,171.794 446.14,173.127 443.5,174.5C 442.374,173.192 442.374,171.858 443.5,170.5 Z M 313.5,171.5 C 315.179,171.892 316.846,172.392 318.5,173C 315.833,173.667 313.167,173.667 310.5,173C 311.737,172.768 312.737,172.268 313.5,171.5 Z M 244.5,176.5 C 242.407,175.955 240.407,175.122 238.5,174C 241.337,172.239 243.337,173.073 244.5,176.5 Z M 451.5,172.5 C 453.465,172.948 453.798,173.948 452.5,175.5C 450.481,174.867 450.147,173.867 451.5,172.5 Z M 535.5,172.5 C 536.978,172.238 538.311,172.571 539.5,173.5C 537.537,176.194 536.203,175.861 535.5,172.5 Z M 528.5,174.5 C 532.977,176.051 533.643,178.718 530.5,182.5C 528.926,183.631 527.259,183.798 525.5,183C 524.088,179.322 525.088,176.489 528.5,174.5 Z M 436.5,178.5 C 436.604,176.027 437.604,175.361 439.5,176.5C 438.643,177.425 437.643,178.092 436.5,178.5 Z M 549.5,175.5 C 551.308,175.491 552.975,175.991 554.5,177C 552.167,177.667 549.833,177.667 547.5,177C 548.416,176.722 549.082,176.222 549.5,175.5 Z M 426.5,177.5 C 427.077,176.227 427.743,176.227 428.5,177.5C 428.03,178.463 427.363,178.463 426.5,177.5 Z M 446.5,176.5 C 448.625,177.368 448.791,178.368 447,179.5C 445.317,178.824 445.15,177.824 446.5,176.5 Z M 76.5,177.5 C 80.5138,177.334 84.5138,177.501 88.5,178C 96.646,179.409 103.979,181.075 110.5,183C 97.3148,183.963 84.1481,185.13 71,186.5C 65.1758,185.898 59.3425,185.398 53.5,185C 60.9347,182.661 68.6014,180.161 76.5,177.5 Z M 348.5,177.5 C 350.256,178.552 350.923,180.219 350.5,182.5C 349.167,182.5 347.833,182.5 346.5,182.5C 346.392,180.486 347.058,178.82 348.5,177.5 Z M 321.5,178.5 C 319.365,182.397 319.698,186.23 322.5,190C 316.235,191.484 309.902,191.818 303.5,191C 308.571,185.418 314.571,181.251 321.5,178.5 Z M 454.5,178.5 C 457.423,179.163 458.09,180.83 456.5,183.5C 454.323,182.185 453.656,180.519 454.5,178.5 Z M 304.5,179.5 C 303.152,180.601 301.652,181.601 300,182.5C 300.317,180.227 301.817,179.227 304.5,179.5 Z M 464.5,179.5 C 474.302,180.931 483.136,184.598 491,190.5C 493.355,197.946 491.522,204.113 485.5,209C 484.514,211.328 482.514,213.328 479.5,215C 477.5,215.667 475.5,215.667 473.5,215C 465.641,208.64 459.975,200.64 456.5,191C 457.058,188.942 458.391,187.775 460.5,187.5C 464.741,189.788 469.074,191.788 473.5,193.5C 473.719,192.325 473.386,191.325 472.5,190.5C 469.249,188.625 466.082,186.625 463,184.5C 462.878,182.718 463.378,181.052 464.5,179.5 Z M 327.5,180.5 C 330.09,181.128 332.423,182.295 334.5,184C 333.62,185.356 333.286,186.856 333.5,188.5C 330.315,188.98 327.481,188.314 325,186.5C 324.034,183.66 324.867,181.66 327.5,180.5 Z M 440.5,180.5 C 442.927,181.279 442.927,182.446 440.5,184C 439.167,184.667 437.833,184.667 436.5,184C 437.731,182.595 439.064,181.429 440.5,180.5 Z M 449.5,182.5 C 451.641,183.755 452.307,185.422 451.5,187.5C 449.323,186.185 448.656,184.519 449.5,182.5 Z M 516.5,182.5 C 520.208,182.957 521.041,184.623 519,187.5C 515.946,186.676 515.112,185.009 516.5,182.5 Z M 543.5,182.5 C 550.95,184.43 556.95,188.597 561.5,195C 555.432,195.493 549.432,194.993 543.5,193.5C 545.95,189.696 545.95,186.03 543.5,182.5 Z M 340.5,183.5 C 341.806,186.687 341.806,190.02 340.5,193.5C 338.495,192.663 337.495,191.163 337.5,189C 338.313,187.032 339.313,185.198 340.5,183.5 Z M 496.5,183.5 C 510.449,187.814 513.282,196.147 505,208.5C 501.568,213.769 497.068,217.769 491.5,220.5C 484.369,219.655 483.369,217.155 488.5,213C 489.938,212.781 491.271,212.281 492.5,211.5C 492.167,210.833 491.833,210.167 491.5,209.5C 492.727,208.41 493.56,207.076 494,205.5C 495.333,206.167 496.667,206.833 498,207.5C 498.667,206.5 498.667,205.5 498,204.5C 496.745,203.789 495.579,202.956 494.5,202C 495.167,199.333 495.833,196.667 496.5,194C 496.167,193.667 495.833,193.333 495.5,193C 497.379,192.04 499.379,191.54 501.5,191.5C 499.584,189.683 497.251,188.516 494.5,188C 493.663,186.989 493.33,185.822 493.5,184.5C 494.791,184.737 495.791,184.404 496.5,183.5 Z M 258.5,187.5 C 254.225,190.58 249.558,193.08 244.5,195C 243.549,195.718 243.383,196.551 244,197.5C 248.439,198.454 248.439,199.788 244,201.5C 239.867,200.709 235.7,199.876 231.5,199C 229.292,198.064 227.958,196.398 227.5,194C 225.754,193.529 224.087,192.862 222.5,192C 228.94,189.466 235.606,187.633 242.5,186.5C 247.357,186.016 252.191,185.349 257,184.5C 259.28,184.894 259.78,185.894 258.5,187.5 Z M 302.5,184.5 C 293.063,195.44 283.063,205.94 272.5,216C 268.656,219.342 264.656,222.509 260.5,225.5C 270.269,208.07 284.269,194.403 302.5,184.5 Z M 535.5,184.5 C 541.971,185.092 542.971,187.592 538.5,192C 534.535,193.417 532.201,192.084 531.5,188C 532.731,186.595 534.064,185.429 535.5,184.5 Z M 351.5,185.5 C 360.753,188.785 360.586,191.785 351,194.5C 346.746,193.769 345.58,191.435 347.5,187.5C 349.026,187.006 350.359,186.339 351.5,185.5 Z M 442.5,186.5 C 445.5,186.167 446.833,187.5 446.5,190.5C 443.927,190.852 441.594,190.352 439.5,189C 440.571,188.148 441.571,187.315 442.5,186.5 Z M 561.5,183.5 C 563.933,183.273 565.599,184.273 566.5,186.5C 564.566,185.89 562.899,184.89 561.5,183.5 Z M 372.5,187.5 C 374.287,191.075 376.121,194.741 378,198.5C 378.948,200.57 380.448,202.07 382.5,203C 381.747,204.487 380.914,204.654 380,203.5C 379.215,205.286 378.049,206.786 376.5,208C 379.999,208.099 383.332,207.266 386.5,205.5C 390.064,206.047 393.564,206.714 397,207.5C 397.333,207.167 397.667,206.833 398,206.5C 398.667,207.5 398.667,208.5 398,209.5C 394.553,212.793 391.053,215.96 387.5,219C 390.407,219.854 392.74,219.021 394.5,216.5C 395.326,218.959 395.993,221.459 396.5,224C 391.067,231.184 384.734,232.184 377.5,227C 367.907,218.649 363.073,208.149 363,195.5C 365.362,191.755 368.528,189.089 372.5,187.5 Z M 524.5,187.5 C 531.003,190.76 531.003,193.76 524.5,196.5C 524.5,193.5 524.5,190.5 524.5,187.5 Z M 425.5,195.5 C 423.223,199.28 420.389,202.613 417,205.5C 415.991,207.025 415.491,208.692 415.5,210.5C 417.484,210.617 419.15,209.95 420.5,208.5C 423.643,204.189 426.977,200.022 430.5,196C 432.112,195.28 433.612,195.446 435,196.5C 433.401,205.358 432.067,214.358 431,223.5C 430.242,227.922 427.742,230.755 423.5,232C 415.207,232.457 407.707,230.29 401,225.5C 399.596,223.361 398.763,221.028 398.5,218.5C 403.524,206.81 411.191,197.143 421.5,189.5C 423.149,190.648 424.649,191.981 426,193.5C 426.692,194.437 426.525,195.103 425.5,195.5 Z M 512.5,189.5 C 517.317,189.107 519.817,191.107 520,195.5C 518.534,197.325 516.701,197.825 514.5,197C 512.887,194.772 512.22,192.272 512.5,189.5 Z M 136.5,190.5 C 137.873,190.343 139.207,190.51 140.5,191C 139.747,192.487 138.914,192.654 138,191.5C 136.913,193.932 136.413,193.598 136.5,190.5 Z M 286.5,190.5 C 281.144,194.701 275.144,196.367 268.5,195.5C 274.548,192.829 280.548,191.162 286.5,190.5 Z M 117.5,201.5 C 122.867,197.831 128.534,194.497 134.5,191.5C 135.386,192.325 135.719,193.325 135.5,194.5C 133.61,194.297 132.11,194.963 131,196.5C 129.984,195.366 129.317,195.699 129,197.5C 128.667,197.167 128.333,196.833 128,196.5C 124.821,198.848 121.321,200.514 117.5,201.5 Z M 451.5,192.5 C 453.624,193.031 455.124,194.365 456,196.5C 460.18,204.697 463.68,213.197 466.5,222C 462.536,233.586 454.869,236.919 443.5,232C 440.537,229.125 438.704,225.625 438,221.5C 437.225,213.452 437.558,205.452 439,197.5C 440.493,195.44 442.326,195.107 444.5,196.5C 446.452,201.687 447.785,207.02 448.5,212.5C 449.5,212.5 450.5,212.5 451.5,212.5C 450.378,207.13 449.045,201.796 447.5,196.5C 448.437,194.712 449.77,193.379 451.5,192.5 Z M 332.5,193.5 C 338.961,196.291 339.128,199.625 333,203.5C 330.952,202.902 329.785,201.569 329.5,199.5C 329.984,197.199 330.984,195.199 332.5,193.5 Z M 255.5,203.5 C 250.946,210.727 245.279,217.06 238.5,222.5C 234.473,227.861 229.806,232.527 224.5,236.5C 233.284,219.249 245.451,205.582 261,195.5C 260.614,199.07 258.781,201.737 255.5,203.5 Z M 199.5,200.5 C 199.761,197.367 201.428,196.2 204.5,197C 202.677,197.997 201.01,199.164 199.5,200.5 Z M 212.5,196.5 C 214.682,197.3 216.349,198.8 217.5,201C 222.282,201.119 226.949,201.785 231.5,203C 222.488,206.336 213.488,206.169 204.5,202.5C 206.926,200.059 209.593,198.059 212.5,196.5 Z M 343.5,196.5 C 346.336,197.995 347.336,200.161 346.5,203C 341.382,202.824 340.382,200.658 343.5,196.5 Z M 358.5,196.5 C 358.459,198.745 357.625,199.412 356,198.5C 354.422,202.143 352.589,202.309 350.5,199C 352.862,197.269 355.529,196.435 358.5,196.5 Z M 531.5,197.5 C 537.569,200.066 537.902,203.066 532.5,206.5C 529.07,203.796 528.736,200.796 531.5,197.5 Z M 199.5,200.5 C 197.518,201.562 195.685,202.895 194,204.5C 193.617,203.944 193.117,203.611 192.5,203.5C 194.23,201.921 196.064,200.254 198,198.5C 198.278,199.416 198.778,200.082 199.5,200.5 Z M 521.5,200.5 C 524.244,201.072 525.077,202.738 524,205.5C 522.644,206.38 521.144,206.714 519.5,206.5C 519.253,204.142 519.919,202.142 521.5,200.5 Z M 512.5,201.5 C 513.5,201.5 514.5,201.5 515.5,201.5C 515.762,202.978 515.429,204.311 514.5,205.5C 512.889,204.68 512.222,203.346 512.5,201.5 Z M 192.5,203.5 C 192.25,204.922 191.417,205.922 190,206.5C 188.992,206.018 187.825,205.852 186.5,206C 188.408,204.094 190.408,203.26 192.5,203.5 Z M 312.5,202.5 C 318.375,205.022 319.042,208.689 314.5,213.5C 310.876,215.396 308.876,214.396 308.5,210.5C 308.782,207.269 310.115,204.602 312.5,202.5 Z M 355.5,204.5 C 355.5,205.833 355.5,207.167 355.5,208.5C 353.801,208.66 352.134,208.494 350.5,208C 351.253,206.513 352.086,206.346 353,207.5C 353.852,206.429 354.685,205.429 355.5,204.5 Z M 199.5,205.5 C 202.809,206.663 206.143,207.83 209.5,209C 202.416,211.939 195.083,212.939 187.5,212C 191.434,209.536 195.434,207.369 199.5,205.5 Z M 337.5,205.5 C 339.084,206.382 340.751,207.215 342.5,208C 339.95,209.442 337.284,210.608 334.5,211.5C 332.869,209.703 330.869,208.536 328.5,208C 331.992,208.07 334.992,207.237 337.5,205.5 Z M 551.5,205.5 C 557.721,209.99 558.055,213.99 552.5,217.5C 547.733,213.643 547.4,209.643 551.5,205.5 Z M 184.5,208.5 C 184.511,205.999 185.178,205.832 186.5,208C 185.906,208.464 185.239,208.631 184.5,208.5 Z M 359.5,207.5 C 360.497,207.47 361.164,207.97 361.5,209C 362.547,210.578 362.547,212.078 361.5,213.5C 359.717,211.977 359.051,209.977 359.5,207.5 Z M 511.5,208.5 C 516.767,209.562 516.767,210.562 511.5,211.5C 511.5,210.5 511.5,209.5 511.5,208.5 Z M 526.5,208.5 C 528.379,208.393 528.712,208.893 527.5,210C 529.9,210.186 532.234,210.686 534.5,211.5C 534.135,212.902 533.301,213.902 532,214.5C 529.224,213.195 526.39,212.029 523.5,211C 525.119,210.764 526.119,209.931 526.5,208.5 Z M 236.5,209.5 C 237.525,209.897 237.692,210.563 237,211.5C 235.267,213.147 233.434,214.647 231.5,216C 231.833,216.333 232.167,216.667 232.5,217C 230.951,218.214 229.785,219.714 229,221.5C 227.322,220.534 226.655,219.201 227,217.5C 230.728,215.969 233.895,213.302 236.5,209.5 Z M 295.5,209.5 C 299.762,209.587 302.429,211.754 303.5,216C 302.462,219.004 300.795,221.504 298.5,223.5C 296.234,223.069 294.734,221.736 294,219.5C 293.037,215.851 293.537,212.518 295.5,209.5 Z M 323.5,211.5 C 329.641,212.469 329.975,214.636 324.5,218C 323.128,218.402 321.795,218.902 320.5,219.5C 319.5,219.167 318.833,218.5 318.5,217.5C 319.497,214.845 321.164,212.845 323.5,211.5 Z M 347.5,212.5 C 351.267,211.926 354.267,213.093 356.5,216C 353.013,219.338 349.68,219.171 346.5,215.5C 347.127,214.583 347.461,213.583 347.5,212.5 Z M 506.5,212.5 C 507.797,213.849 507.63,215.182 506,216.5C 505.805,215.181 505.972,213.847 506.5,212.5 Z M 565.5,212.5 C 569.58,212.081 571.58,213.914 571.5,218C 571.55,222.069 569.717,224.902 566,226.5C 564.111,223.888 562.611,221.055 561.5,218C 562.65,216.019 563.984,214.186 565.5,212.5 Z M 539.5,214.5 C 543.354,214.594 546.021,216.428 547.5,220C 543.438,221.992 540.105,220.992 537.5,217C 538.056,215.989 538.722,215.156 539.5,214.5 Z M 176.5,216.5 C 178.288,215.378 180.288,215.211 182.5,216C 180.342,216.909 178.342,217.075 176.5,216.5 Z M 512.5,215.5 C 515.908,214.828 518.575,215.828 520.5,218.5C 518.184,219.932 515.684,220.932 513,221.5C 509.898,219.663 509.731,217.663 512.5,215.5 Z M 360.5,217.5 C 367.724,217.848 369.391,221.181 365.5,227.5C 361.334,230.16 358.668,228.993 357.5,224C 357.84,221.489 358.84,219.322 360.5,217.5 Z M 307.5,218.5 C 314.585,219.057 317.585,222.723 316.5,229.5C 312.089,230.888 308.589,229.555 306,225.5C 305.391,222.935 305.891,220.601 307.5,218.5 Z M 475.5,220.5 C 482.2,219.618 486.533,222.784 488.5,230C 485.489,241.348 478.322,248.181 467,250.5C 465.108,249.87 463.441,248.87 462,247.5C 461.75,244.15 460.917,240.983 459.5,238C 461.985,236.513 464.152,234.679 466,232.5C 470.785,237.708 471.618,236.875 468.5,230C 470.234,226.844 471.067,223.677 471,220.5C 472.458,222.96 474.291,225.127 476.5,227C 477.725,227.563 478.725,227.23 479.5,226C 477.531,224.5 476.198,222.667 475.5,220.5 Z M 503.5,219.5 C 508.698,220.891 510.531,224.224 509,229.5C 506.833,231.464 504.499,231.798 502,230.5C 498.581,225.946 499.081,222.28 503.5,219.5 Z M 556.5,220.5 C 560.756,225.01 560.089,228.843 554.5,232C 548.394,232.718 546.894,230.218 550,224.5C 552.095,222.875 554.261,221.542 556.5,220.5 Z M 347.5,223.5 C 349.389,224.38 351.389,224.38 353.5,223.5C 353.67,224.822 353.337,225.989 352.5,227C 356.36,231.516 355.027,233.182 348.5,232C 347.167,230.667 345.833,229.333 344.5,228C 346.141,226.871 347.141,225.371 347.5,223.5 Z M 323.5,224.5 C 326.605,224.599 329.272,225.599 331.5,227.5C 329.141,231.125 326.307,231.458 323,228.5C 322.421,227.072 322.588,225.738 323.5,224.5 Z M 433.5,224.5 C 435.301,226.587 435.635,228.921 434.5,231.5C 435.945,238.104 437.112,244.77 438,251.5C 439.236,245.548 439.736,239.548 439.5,233.5C 441.657,235.412 443.991,237.079 446.5,238.5C 448.014,244.999 449.347,244.833 450.5,238C 452.441,237.257 454.274,237.424 456,238.5C 460.226,251.518 455.059,258.184 440.5,258.5C 432.826,259.512 428.159,256.345 426.5,249C 427.387,244.176 428.221,239.343 429,234.5C 432.147,231.869 433.647,228.536 433.5,224.5 Z M 515.5,225.5 C 521.848,226.711 522.848,229.544 518.5,234C 516.029,234.706 513.695,234.373 511.5,233C 512.374,230.177 513.707,227.677 515.5,225.5 Z M 370.5,226.5 C 373.225,227.713 375.559,229.546 377.5,232C 375.941,233.756 374.274,233.756 372.5,232C 369.882,230.639 369.215,228.806 370.5,226.5 Z M 491.5,226.5 C 494.94,226.337 496.94,228.004 497.5,231.5C 495.919,234.125 493.585,235.458 490.5,235.5C 491.159,232.545 491.492,229.545 491.5,226.5 Z M 536.5,227.5 C 538.833,227.5 541.167,227.5 543.5,227.5C 543.338,230.669 541.672,232.669 538.5,233.5C 534.743,232.068 534.076,230.068 536.5,227.5 Z M 300.5,228.5 C 302.985,230.484 305.318,232.65 307.5,235C 302.333,242.715 298.333,242.048 295.5,233C 296.445,230.554 298.111,229.054 300.5,228.5 Z M 396.5,228.5 C 400.223,229.858 403.889,231.525 407.5,233.5C 408.747,235.006 408.747,236.506 407.5,238C 408.025,238.692 408.692,239.192 409.5,239.5C 410.604,237.611 411.937,235.945 413.5,234.5C 414.795,235.098 416.128,235.598 417.5,236C 416.708,237.905 416.708,240.071 417.5,242.5C 419.102,240.573 420.435,238.406 421.5,236C 422.793,235.51 424.127,235.343 425.5,235.5C 421.912,259.942 411.745,262.942 395,244.5C 393.697,242.06 392.53,239.56 391.5,237C 392.541,233.743 394.208,230.91 396.5,228.5 Z M 563.5,230.5 C 571.051,234.027 571.051,238.027 563.5,242.5C 560.891,241.557 558.891,239.89 557.5,237.5C 559.523,235.147 561.523,232.814 563.5,230.5 Z M 318.5,233.5 C 322.87,237.655 322.203,240.988 316.5,243.5C 312.583,241.231 311.916,238.397 314.5,235C 315.784,234.316 316.951,234.483 318,235.5C 318.464,234.906 318.631,234.239 318.5,233.5 Z M 360.5,233.5 C 367.964,232.89 369.297,235.39 364.5,241C 362.888,241.72 361.388,241.554 360,240.5C 359.297,238.071 359.463,235.738 360.5,233.5 Z M 386.5,234.5 C 387.376,234.369 388.043,234.702 388.5,235.5C 389.065,238.508 390.065,241.341 391.5,244C 387.598,245.02 383.932,246.52 380.5,248.5C 381.833,249.167 383.167,249.833 384.5,250.5C 381.457,254.544 377.791,257.877 373.5,260.5C 372.167,261.5 372.167,262.5 373.5,263.5C 375.648,262.478 377.981,262.478 380.5,263.5C 383.701,257.131 387.868,251.464 393,246.5C 395.463,249.965 398.296,253.131 401.5,256C 389.341,266.827 375.341,271.827 359.5,271C 363.164,261.169 367.998,252.002 374,243.5C 377.969,240.111 382.136,237.111 386.5,234.5 Z M 501.5,235.5 C 507.662,235.45 509.329,237.95 506.5,243C 500.785,243.401 499.119,240.901 501.5,235.5 Z M 545.5,236.5 C 547.861,236.674 550.194,237.007 552.5,237.5C 553.109,241.005 551.942,243.672 549,245.5C 544.676,243.702 543.51,240.702 545.5,236.5 Z M 372.5,237.5 C 374.657,238.053 374.49,239.053 372,240.5C 371.53,239.423 371.697,238.423 372.5,237.5 Z M 495.5,242.5 C 493.668,241.86 493.335,240.86 494.5,239.5C 495.386,240.325 495.719,241.325 495.5,242.5 Z M 486.5,258.5 C 487.117,258.389 487.617,258.056 488,257.5C 490.925,259.912 494.092,260.912 497.5,260.5C 496.395,259.108 495.061,257.941 493.5,257C 495.286,256.804 496.619,255.971 497.5,254.5C 494.291,253.213 491.125,253.213 488,254.5C 486.391,253.853 484.891,253.02 483.5,252C 491.378,248.868 491.044,247.535 482.5,248C 484.333,245.5 486.167,243 488,240.5C 495.52,247.207 500.354,255.54 502.5,265.5C 492.956,266.568 483.622,265.402 474.5,262C 470.59,260.093 467.256,257.427 464.5,254C 471.595,250.642 476.928,252.309 480.5,259C 482.217,260.559 484.217,261.392 486.5,261.5C 486.5,260.5 486.5,259.5 486.5,258.5 Z M 483.5,256.5 C 485.179,256.285 486.179,256.952 486.5,258.5C 484.973,258.573 483.973,257.906 483.5,256.5 Z"/></g>
<g><path style="opacity:0.704" fill="#030303" d="M 243.5,154.5 C 242.4,155.605 241.733,156.938 241.5,158.5C 238.475,158.123 235.475,157.956 232.5,158C 235.958,159.415 239.625,159.915 243.5,159.5C 245.306,160.024 246.972,160.691 248.5,161.5C 232.303,163.133 216.637,165.966 201.5,170C 212.833,170.667 224.167,170.667 235.5,170C 242.041,168.394 248.375,166.227 254.5,163.5C 255.833,164.5 255.833,165.5 254.5,166.5C 252.026,168.24 249.359,169.74 246.5,171C 248.804,173.641 251.138,176.308 253.5,179C 255.366,179.985 257.366,180.485 259.5,180.5C 263.173,180.047 266.84,179.547 270.5,179C 275.517,175.782 280.683,172.949 286,170.5C 286.333,170.833 286.667,171.167 287,171.5C 291.588,169.311 296.421,167.978 301.5,167.5C 302.833,168.167 304.167,168.833 305.5,169.5C 291.277,171.51 279.611,176.51 270.5,184.5C 266.678,186.244 263.011,188.244 259.5,190.5C 259.082,189.778 258.416,189.278 257.5,189C 258.056,188.617 258.389,188.117 258.5,187.5C 259.78,185.894 259.28,184.894 257,184.5C 252.191,185.349 247.357,186.016 242.5,186.5C 243.833,185.5 243.833,184.5 242.5,183.5C 243.766,182.91 245.099,182.41 246.5,182C 238.18,176.337 229.013,173.504 219,173.5C 207.975,173.342 196.808,173.842 185.5,175C 184.289,174.107 184.289,173.274 185.5,172.5C 194.263,168.359 203.263,165.025 212.5,162.5C 210.777,158.609 207.944,155.943 204,154.5C 195.998,156.334 187.998,158.334 180,160.5C 172.779,159.104 165.279,158.604 157.5,159C 158.381,159.708 159.047,160.542 159.5,161.5C 158.833,162.167 158.167,162.833 157.5,163.5C 154.948,162.307 152.448,160.973 150,159.5C 149.333,160.167 149.333,160.833 150,161.5C 157.74,168.616 166.24,174.616 175.5,179.5C 175.5,179.833 175.5,180.167 175.5,180.5C 174.391,180.557 173.391,180.89 172.5,181.5C 158.48,174.486 146.814,164.652 137.5,152C 139.272,150.513 141.272,150.18 143.5,151C 145.249,152.292 147.082,153.458 149,154.5C 152.457,152.526 155.957,150.86 159.5,149.5C 170.726,147.312 182.393,146.145 194.5,146C 182.38,144.818 170.38,142.818 158.5,140C 151.322,137.493 144.489,134.327 138,130.5C 135.139,129.954 132.473,128.954 130,127.5C 128.173,128.184 126.673,127.517 125.5,125.5C 127.341,124.77 129.175,124.103 131,123.5C 131.333,123.833 131.667,124.167 132,124.5C 142.495,122.01 152.995,122.01 163.5,124.5C 164.086,124.291 164.586,123.957 165,123.5C 174,129.167 183,134.833 192,140.5C 191.189,137.859 190.022,135.192 188.5,132.5C 190.622,129.86 192.456,130.194 194,133.5C 192.934,130.034 191.267,126.701 189,123.5C 185.823,116.771 185.823,110.105 189,103.5C 192.252,108.334 195.252,113.334 198,118.5C 202.626,123.306 207.626,127.639 213,131.5C 216.103,136.269 218.769,141.269 221,146.5C 222.167,147.667 223.333,148.833 224.5,150C 230.672,152.14 237.005,153.64 243.5,154.5 Z M 142.5,125.5 C 157.448,123.759 170.115,128.259 180.5,139C 166.452,138.79 153.785,135.29 142.5,128.5C 140.577,127.692 138.577,127.192 136.5,127C 138.708,126.809 140.708,126.309 142.5,125.5 Z M 214.5,141.5 C 215.771,143.109 216.771,144.942 217.5,147C 205.342,140.834 196.508,131.334 191,118.5C 190.333,116.833 190.333,115.167 191,113.5C 192.08,115.996 193.414,118.33 195,120.5C 200.667,125.5 206.333,130.5 212,135.5C 213.122,137.407 213.955,139.407 214.5,141.5 Z M 175.5,149.5 C 184.552,149.193 193.552,149.693 202.5,151C 193.502,153.708 184.336,155.541 175,156.5C 168.824,156.12 162.657,155.62 156.5,155C 162.644,152.212 168.977,150.378 175.5,149.5 Z M 211.5,153.5 C 217.866,154.348 223.533,156.848 228.5,161C 225.905,161.226 223.405,161.726 221,162.5C 217.259,159.921 214.093,156.921 211.5,153.5 Z M 157.5,163.5 C 163.604,167.436 169.271,171.936 174.5,177C 175.252,177.671 175.586,178.504 175.5,179.5C 166.24,174.616 157.74,168.616 150,161.5C 149.333,160.833 149.333,160.167 150,159.5C 152.448,160.973 154.948,162.307 157.5,163.5 Z M 244.5,176.5 C 243.337,173.073 241.337,172.239 238.5,174C 240.407,175.122 242.407,175.955 244.5,176.5 Z"/></g>
<g><path style="opacity:0.004" fill="#000000" d="M 217.5,127.5 C 216.833,128.167 216.833,128.167 217.5,127.5 Z"/></g>
<g><path style="opacity:0.004" fill="#000000" d="M 221.5,134.5 C 220.833,135.167 220.833,135.167 221.5,134.5 Z"/></g>
<g><path style="opacity:0.004" fill="#000000" d="M 159.5,149.5 C 158.833,148.167 158.833,148.167 159.5,149.5 Z"/></g>
<g><path style="opacity:0.764" fill="#0a0a0a" d="M 681.5,151.5 C 681.167,152.5 680.5,153.167 679.5,153.5C 676.167,153.5 672.833,153.5 669.5,153.5C 666.972,153.676 664.305,153.176 661.5,152C 663.134,151.506 664.801,151.34 666.5,151.5C 671.537,150.463 676.537,150.463 681.5,151.5 Z"/></g>
<g><path style="opacity:0.004" fill="#000000" d="M 163.5,177.5 C 164.833,178.167 164.833,178.167 163.5,177.5 Z"/></g>
<g><path style="opacity:0.648" fill="#0d0d0d" d="M 306.5,179.5 C 307.885,178.386 309.385,177.386 311,176.5C 311.374,177.416 311.874,178.25 312.5,179C 310.336,179.37 308.336,180.204 306.5,181.5C 305.537,181.03 305.537,180.363 306.5,179.5 Z"/></g>
<g><path style="opacity:0.722" fill="#030303" d="M 666.5,151.5 C 664.801,151.34 663.134,151.506 661.5,152C 664.305,153.176 666.972,153.676 669.5,153.5C 666.695,154.319 663.695,154.819 660.5,155C 668.805,158.375 677.472,160.209 686.5,160.5C 692.907,160.028 699.241,159.861 705.5,160C 703.623,158.815 701.623,157.815 699.5,157C 692.746,155.502 686.079,154.335 679.5,153.5C 680.5,153.167 681.167,152.5 681.5,151.5C 691.969,151.27 701.802,153.603 711,158.5C 713.896,156.467 717.063,155.134 720.5,154.5C 720.12,157.745 718.953,160.745 717,163.5C 708.35,171.82 698.85,178.986 688.5,185C 701.812,184.809 715.146,184.476 728.5,184C 736.507,179.656 743.841,174.323 750.5,168C 756.776,163.944 763.609,161.444 771,160.5C 775.495,160.327 776.329,161.827 773.5,165C 768.846,167.571 764.679,170.738 761,174.5C 760.667,174.167 760.333,173.833 760,173.5C 756.258,176.704 752.592,179.37 749,181.5C 747.927,180.72 746.76,180.887 745.5,182C 755.478,180.615 765.478,179.115 775.5,177.5C 786.344,178.391 796.677,181.225 806.5,186C 808.037,187.11 808.703,188.61 808.5,190.5C 783.71,192.205 759.043,191.205 734.5,187.5C 729.35,188.382 724.35,188.882 719.5,189C 733.27,193.131 745.437,199.965 756,209.5C 756.483,210.448 756.649,211.448 756.5,212.5C 748.444,210.316 740.444,207.816 732.5,205C 721.802,199.651 711.136,194.318 700.5,189C 686.505,189.628 672.505,190.628 658.5,192C 656.833,192.333 655.167,192.667 653.5,193C 655.066,193.608 656.4,194.442 657.5,195.5C 659.031,196.925 658.698,197.591 656.5,197.5C 655.833,197.5 655.167,197.5 654.5,197.5C 656.36,198.939 658.027,200.605 659.5,202.5C 659.167,203.5 658.5,204.167 657.5,204.5C 654.788,202.724 651.955,201.057 649,199.5C 647.477,201.354 645.644,202.854 643.5,204C 639.823,203.191 636.157,203.358 632.5,204.5C 631.417,204.461 630.417,204.127 629.5,203.5C 628.369,204.751 627.036,205.751 625.5,206.5C 622.937,206.263 622.937,205.763 625.5,205C 624.584,204.722 623.918,204.222 623.5,203.5C 626.516,202.941 629.516,202.275 632.5,201.5C 633.802,197.701 636.469,195.535 640.5,195C 627.648,190.448 614.648,188.115 601.5,188C 606.497,191.834 611.83,195.167 617.5,198C 618.337,199.011 618.67,200.178 618.5,201.5C 616.585,201.216 614.919,201.549 613.5,202.5C 613.737,203.791 613.404,204.791 612.5,205.5C 609.115,203.053 605.615,200.72 602,198.5C 601.833,198.833 601.667,199.167 601.5,199.5C 606.856,205.853 612.19,212.186 617.5,218.5C 617.167,219.5 616.5,220.167 615.5,220.5C 610.703,215.202 605.703,210.035 600.5,205C 597.204,204.543 594.037,203.709 591,202.5C 590.08,202.93 589.247,203.264 588.5,203.5C 593.608,208.267 597.941,213.601 601.5,219.5C 601.672,220.492 601.338,221.158 600.5,221.5C 592.335,211.169 583.002,202.002 572.5,194C 569.273,191.888 565.94,190.055 562.5,188.5C 562.027,187.094 561.027,186.427 559.5,186.5C 557.219,185.686 555.219,184.352 553.5,182.5C 553.833,182.167 554.167,181.833 554.5,181.5C 555.622,182.63 556.956,183.297 558.5,183.5C 559.5,183.5 560.5,183.5 561.5,183.5C 562.899,184.89 564.566,185.89 566.5,186.5C 567.167,187.833 567.833,187.833 568.5,186.5C 569.29,185.599 570.29,184.932 571.5,184.5C 581.29,190.596 591.957,193.763 603.5,194C 596.646,190.408 590.313,186.075 584.5,181C 576.78,177.571 568.78,175.071 560.5,173.5C 560.833,172.5 561.5,171.833 562.5,171.5C 573.647,173.27 583.98,177.103 593.5,183C 597.195,183.318 600.862,183.818 604.5,184.5C 606.197,184.101 607.863,183.601 609.5,183C 611.598,180.146 613.931,177.479 616.5,175C 608.686,170.285 600.186,167.785 591,167.5C 582.527,168.571 574.027,169.238 565.5,169.5C 565.189,168.522 564.522,167.855 563.5,167.5C 562.056,168.981 561.389,168.648 561.5,166.5C 569.25,164.096 576.25,161.096 582.5,157.5C 582.5,158.5 582.5,159.5 582.5,160.5C 580.9,161.644 579.233,162.811 577.5,164C 588.419,163.437 598.419,160.103 607.5,154C 614.681,146.652 622.014,139.485 629.5,132.5C 634.587,126.243 639.087,119.576 643,112.5C 644.784,109.997 646.451,109.997 648,112.5C 647.01,136.598 634.843,152.098 611.5,159C 620.81,159.003 629.81,157.337 638.5,154C 641.793,148.582 644.96,143.082 648,137.5C 652.667,133.5 657.333,129.5 662,125.5C 665.447,120.264 668.613,114.93 671.5,109.5C 672.086,109.709 672.586,110.043 673,110.5C 675.306,119.474 673.806,127.807 668.5,135.5C 670.066,134.939 671.399,135.606 672.5,137.5C 671.037,139.729 670.203,142.063 670,144.5C 677.104,140.393 683.938,135.893 690.5,131C 704.755,126.67 719.088,126.504 733.5,130.5C 723.291,134.302 713.291,138.802 703.5,144C 691.738,147.054 680.072,149.054 668.5,150C 667.584,150.278 666.918,150.778 666.5,151.5 Z M 561.5,183.5 C 563.933,183.273 565.599,184.273 566.5,186.5C 564.566,185.89 562.899,184.89 561.5,183.5 Z M 770.5,180.5 C 782.042,180.636 793.042,183.136 803.5,188C 785.442,188.907 767.442,188.241 749.5,186C 751.425,184.405 753.425,184.238 755.5,185.5C 760.416,183.36 765.416,181.693 770.5,180.5 Z M 620.5,177.5 C 626.283,176.043 626.617,176.709 621.5,179.5C 621.213,178.8 620.88,178.133 620.5,177.5 Z M 757.5,169.5 C 756.71,170.401 755.71,171.068 754.5,171.5C 754.821,169.952 755.821,169.285 757.5,169.5 Z M 604.5,166.5 C 608.981,165.352 613.648,165.185 618.5,166C 632.754,167.597 646.754,170.263 660.5,174C 648.833,174.667 637.167,174.667 625.5,174C 618.683,170.922 611.683,168.422 604.5,166.5 Z M 709.5,163.5 C 710.525,163.897 710.692,164.563 710,165.5C 704.437,170.363 698.604,174.863 692.5,179C 690.956,180.187 689.289,180.52 687.5,180C 691.111,176.847 694.777,173.681 698.5,170.5C 702.33,167.987 705.997,165.654 709.5,163.5 Z M 626.5,161.5 C 631.419,161.453 631.419,162.453 626.5,164.5C 624.556,163.811 622.556,163.311 620.5,163C 622.708,162.809 624.708,162.309 626.5,161.5 Z M 700.5,164.5 C 692.154,169.664 684.488,175.831 677.5,183C 674.205,185.434 670.538,187.101 666.5,188C 649.438,188.901 632.438,188.235 615.5,186C 622.47,181.349 630.137,178.683 638.5,178C 650.954,177.189 663.287,177.522 675.5,179C 676.791,176.91 676.124,175.576 673.5,175C 665.303,171.703 656.97,168.869 648.5,166.5C 650.316,164.183 652.316,162.016 654.5,160C 664.156,160.286 673.656,161.786 683,164.5C 689.767,162.915 696.601,162.415 703.5,163C 702.756,164.039 701.756,164.539 700.5,164.5 Z M 643.5,158.5 C 645.857,158.337 648.19,158.503 650.5,159C 647.298,161.544 644.131,164.044 641,166.5C 638.865,165.873 636.698,165.373 634.5,165C 637.567,162.812 640.567,160.645 643.5,158.5 Z M 669.5,153.5 C 672.833,153.5 676.167,153.5 679.5,153.5C 686.079,154.335 692.746,155.502 699.5,157C 701.623,157.815 703.623,158.815 705.5,160C 699.241,159.861 692.907,160.028 686.5,160.5C 677.472,160.209 668.805,158.375 660.5,155C 663.695,154.819 666.695,154.319 669.5,153.5 Z M 614.5,152.5 C 614.5,153.167 614.833,153.5 615.5,153.5C 614.791,154.404 613.791,154.737 612.5,154.5C 612.833,153.5 613.5,152.833 614.5,152.5 Z M 646.5,150.5 C 646.217,151.289 645.717,151.956 645,152.5C 644.472,151.184 644.972,150.517 646.5,150.5 Z M 681.5,143.5 C 693.072,131.485 707.072,127.651 723.5,132C 715.955,135.271 708.288,138.271 700.5,141C 694.228,142.348 687.895,143.182 681.5,143.5 Z M 646.5,150.5 C 647.179,144.344 650.179,139.178 655.5,135C 657.286,134.215 658.786,133.049 660,131.5C 660.333,131.833 660.667,132.167 661,132.5C 664.352,128.527 667.352,124.194 670,119.5C 669.646,125.888 667.313,131.555 663,136.5C 658.087,142.013 652.587,146.68 646.5,150.5 Z M 643.5,119.5 C 642.575,129.182 638.575,137.349 631.5,144C 628.602,146.711 625.269,148.878 621.5,150.5C 619.819,152.008 617.819,153.008 615.5,153.5C 614.833,153.5 614.5,153.167 614.5,152.5C 619.167,147.167 624.167,142.167 629.5,137.5C 630.531,136.751 631.698,136.085 633,135.5C 636.275,129.93 639.775,124.597 643.5,119.5 Z M 623.5,203.5 C 620.061,203.747 616.728,203.414 613.5,202.5C 614.919,201.549 616.585,201.216 618.5,201.5C 618.67,200.178 618.337,199.011 617.5,198C 611.83,195.167 606.497,191.834 601.5,188C 614.648,188.115 627.648,190.448 640.5,195C 636.469,195.535 633.802,197.701 632.5,201.5C 629.516,202.275 626.516,202.941 623.5,203.5 Z M 574.5,191.5 C 581.537,194.024 588.537,196.524 595.5,199C 587.166,199.946 580.166,197.446 574.5,191.5 Z M 716.5,192.5 C 727.075,194.451 736.742,198.618 745.5,205C 735.157,202.498 725.491,198.331 716.5,192.5 Z M 654.5,197.5 C 655.167,197.5 655.833,197.5 656.5,197.5C 664.192,201.633 671.192,206.133 677.5,211C 671.167,209.002 665.167,206.168 659.5,202.5C 658.027,200.605 656.36,198.939 654.5,197.5 Z M 657.5,204.5 C 656.77,206.045 655.437,206.878 653.5,207C 645.39,209.315 637.39,208.982 629.5,206C 630.737,205.768 631.737,205.268 632.5,204.5C 636.157,203.358 639.823,203.191 643.5,204C 645.644,202.854 647.477,201.354 649,199.5C 651.955,201.057 654.788,202.724 657.5,204.5 Z"/></g>
<g><path style="opacity:0.686" fill="#020202" d="M 657.5,195.5 C 660.146,196.487 662.812,197.487 665.5,198.5C 669.11,197.342 672.777,196.842 676.5,197C 677.117,199.758 677.284,202.591 677,205.5C 679.56,207.202 682.393,209.202 685.5,211.5C 686.442,211.392 687.275,211.059 688,210.5C 688.096,207.549 688.929,204.882 690.5,202.5C 693.508,201.935 696.341,200.935 699,199.5C 703.777,207.846 700.943,212.346 690.5,213C 689.833,213.667 689.167,214.333 688.5,215C 690.107,216.049 690.773,217.549 690.5,219.5C 686.681,219.117 683.014,218.117 679.5,216.5C 678.692,216.808 678.025,217.308 677.5,218C 687.148,222.102 696.981,222.602 707,219.5C 707.173,217.628 708.006,215.628 709.5,213.5C 710.438,212.447 711.605,211.78 713,211.5C 720.81,211.905 722.643,215.572 718.5,222.5C 712.432,221.843 706.432,222.51 700.5,224.5C 704.86,226.756 709.693,229.09 715,231.5C 718.744,230.374 722.577,230.207 726.5,231C 729.257,233.764 730.257,236.93 729.5,240.5C 721.889,243.535 716.556,241.368 713.5,234C 700.68,227.837 687.347,223.504 673.5,221C 680.05,226.551 686.883,231.717 694,236.5C 695.167,238.833 696.333,241.167 697.5,243.5C 695.956,245.446 693.956,245.946 691.5,245C 683.742,243.332 679.909,238.499 680,230.5C 673.938,224.882 667.104,220.382 659.5,217C 656.515,216.132 653.515,215.799 650.5,216C 651.5,216.333 652.5,216.667 653.5,217C 655.891,222.37 660.224,226.37 666.5,229C 670.893,232.009 672.893,236.175 672.5,241.5C 662.417,241.248 657.25,236.248 657,226.5C 651.324,220.482 644.824,215.649 637.5,212C 635.5,211.333 633.5,211.333 631.5,212C 635.833,215 640.167,218 644.5,221C 655.388,231.555 653.722,235.222 639.5,232C 643.543,238.189 646.877,244.689 649.5,251.5C 648.448,251.649 647.448,251.483 646.5,251C 641.124,245.956 635.458,241.289 629.5,237C 624.6,231.608 619.933,226.108 615.5,220.5C 616.5,220.167 617.167,219.5 617.5,218.5C 623.27,224.771 629.27,230.938 635.5,237C 636.483,237.591 637.15,237.257 637.5,236C 630.745,224.424 622.411,214.257 612.5,205.5C 613.404,204.791 613.737,203.791 613.5,202.5C 616.728,203.414 620.061,203.747 623.5,203.5C 623.918,204.222 624.584,204.722 625.5,205C 622.937,205.763 622.937,206.263 625.5,206.5C 627.036,205.751 628.369,204.751 629.5,203.5C 630.417,204.127 631.417,204.461 632.5,204.5C 631.737,205.268 630.737,205.768 629.5,206C 637.39,208.982 645.39,209.315 653.5,207C 655.437,206.878 656.77,206.045 657.5,204.5C 658.5,204.167 659.167,203.5 659.5,202.5C 665.167,206.168 671.167,209.002 677.5,211C 671.192,206.133 664.192,201.633 656.5,197.5C 658.698,197.591 659.031,196.925 657.5,195.5 Z M 659.5,208.5 C 664.454,209.473 669.121,211.306 673.5,214C 666.938,215.62 660.605,214.787 654.5,211.5C 655.82,209.73 657.32,209.397 659,210.5C 659.464,209.906 659.631,209.239 659.5,208.5 Z M 625.5,212.5 C 629.828,214.347 633.495,217.181 636.5,221C 635.953,221.925 635.287,222.758 634.5,223.5C 631.234,219.916 628.234,216.249 625.5,212.5 Z"/></g>
<g><path style="opacity:0.004" fill="#000000" d="M 220.5,233.5 C 219.833,232.167 219.833,232.167 220.5,233.5 Z"/></g>
</svg>
